<?xml version="1.0" encoding="UTF-8"?>
<!-- Generated by jsxcad -->
<!DOCTYPE svg PUBLIC "-//W3C//DTD SVG 1.1 Tiny//EN" "http://www.w3.org/Graphics/SVG/1.1/DTD/svg11-tiny.dtd">
<svg viewBox="-250 -250 500 500" width="500" height="500" xmlns="http://www.w3.org/2000/svg"><path d="M-14.408683255327949,-61.08696915747957L-18.780936966987586,-58.98524992307199L-21.804739370515772,-55.72194116120129zM-10.053766137855009,-61.36982987515432L-14.408683255327949,-61.08696915747957L-7.0846196438745235,-59.73510464366197zM-20.69357042824111,-49.84362058670784L-14.408683255327949,-61.08696915747957L-21.804739370515772,-55.72194116120129z" style="fill:rgb(83,212,212)"/><path d="M-22.524680580460675,-52.315768624415306L-20.745079429002452,-48.830840819000954L-18.913624938324546,-46.35445811205345z" style="fill:rgb(18,62,136)"/><path d="M-20.69357042824111,-49.84362058670784L-7.0846196438745235,-59.73510464366197L-14.408683255327949,-61.08696915747957zM-21.804739370515772,-55.72194116120129L-22.524680580460675,-52.315768624415306L-20.69357042824111,-49.84362058670784z" style="fill:rgb(83,212,212)"/><path d="M-5.353278606069601,-56.224651938167845L-7.0846196438745235,-59.73510464366197L-6.4544762673564895,-56.68418980550261zM-6.4544762673564895,-56.68418980550261L-4.71919317288089,-53.17141613340133L-5.353278606069601,-56.224651938167845z" style="fill:rgb(246,170,145)"/><path d="M-22.524680580460675,-52.315768624415306L-18.913624938324546,-46.35445811205345L-20.69357042824111,-49.84362058670784z" style="fill:rgb(18,62,136)"/><path d="M-20.69357042824111,-49.84362058670784L-18.913624938324546,-46.35445811205345L-15.099855099832341,-45.607701850919085z" style="fill:rgb(62,34,186)"/><path d="M-7.0846196438745235,-59.73510464366197L-20.69357042824111,-49.84362058670784L-16.872448141114237,-49.10409157034446z" style="fill:rgb(83,212,212)"/><path d="M-8.386643827654428,-53.1799726610399L-6.6407394051410655,-49.66947905156295L-4.71919317288089,-53.17141613340133z" style="fill:rgb(236,118,193)"/><path d="M-7.0846196438745235,-59.73510464366197L-8.386643827654428,-53.1799726610399L-6.4544762673564895,-56.68418980550261z" style="fill:rgb(83,212,212)"/><path d="M-8.386643827654428,-53.1799726610399L-4.71919317288089,-53.17141613340133L-6.4544762673564895,-56.68418980550261z" style="fill:rgb(236,118,193)"/><path d="M-20.69357042824111,-49.84362058670784L-15.099855099832341,-45.607701850919085L-16.872448141114237,-49.10409157034446z" style="fill:rgb(62,34,186)"/><path d="M-8.386643827654428,-53.1799726610399L-7.0846196438745235,-59.73510464366197L-16.872448141114237,-49.10409157034446z" style="fill:rgb(83,212,212)"/><path d="M-16.872448141114237,-49.10409157034446L-15.099855099832341,-45.607701850919085L-10.5165165074154,-46.8436845975745z" style="fill:rgb(127,37,217)"/><path d="M-12.276372785854802,-50.348041819418675L-10.5165165074154,-46.8436845975745L-6.6407394051410655,-49.66947905156295zM-12.276372785854802,-50.348041819418675L-6.6407394051410655,-49.66947905156295L-8.386643827654428,-53.1799726610399z" style="fill:rgb(192,68,220)"/><path d="M-16.872448141114237,-49.10409157034446L-10.5165165074154,-46.8436845975745L-12.276372785854802,-50.348041819418675z" style="fill:rgb(127,37,217)"/><path d="M-16.872448141114237,-49.10409157034446L-12.276372785854802,-50.348041819418675L-8.386643827654428,-53.1799726610399z" style="fill:rgb(83,212,212)"/><path d="M-10.809822123723745,-54.799950197392036L-10.776373639488083,-57.8518739809561L-18.874470729216213,-72.40279468112139z" style="fill:rgb(247,158,158)"/><path d="M-26.401079195066615,-68.94988681605997L-18.21521642594148,-52.788202792833495L-14.538461082623245,-52.259921835616666z" style="fill:rgb(67,34,190)"/><path d="M-22.690426157978838,-68.45433800794322L-14.538461082623245,-52.259921835616666L-10.809822123723745,-54.799950197392036z" style="fill:rgb(187,64,221)"/><path d="M45.89640004109647,-77.57808930442451L41.449417113148556,-75.44238878703216L38.48762319416629,-72.15951386342793z" style="fill:rgb(83,212,212)"/><path d="M-10.776373639488083,-57.8518739809561L-18.842034441737564,-74.0675556757491L-18.871662078605798,-72.54695036540745zM-10.776373639488083,-57.8518739809561L-18.871662078605798,-72.54695036540745L-18.874470729216213,-72.40279468112139z" style="fill:rgb(247,158,158)"/><path d="M-14.538461082623245,-52.259921835616666L-26.259398654974643,-68.93096376377076L-26.401079195066615,-68.94988681605997z" style="fill:rgb(67,34,190)"/><path d="M53.65291149132253,-76.29403944588782L50.43984032888337,-77.89889455414004L45.89640004109647,-77.57808930442451z" style="fill:rgb(83,212,212)"/><path d="M-18.893693863294512,-71.4161859692237L-10.809822123723745,-54.799950197392036L-18.874470729216213,-72.40279468112139z" style="fill:rgb(247,158,158)"/><path d="M-14.538461082623245,-52.259921835616666L-24.548077526196646,-68.70242289009626L-26.259398654974643,-68.93096376377076z" style="fill:rgb(67,34,190)"/><path d="M-22.548289982960128,-74.54723844631984L-23.987752612688524,-73.57341901214484L-21.1348100291284,-74.36430242516312z" style="fill:rgb(83,212,212)"/><path d="M-18.893693863294512,-71.4161859692237L-18.901383036541453,-71.02155103290843L-10.809822123723745,-54.799950197392036z" style="fill:rgb(247,158,158)"/><path d="M45.89640004109647,-77.57808930442451L38.48762319416629,-72.15951386342793L40.02078018060575,-66.30301489682438z" style="fill:rgb(83,212,212)"/><path d="M-20.79529726036049,-69.73835897480062L-10.809822123723745,-54.799950197392036L-18.901383036541453,-71.02155103290843z" style="fill:rgb(187,64,221)"/><path d="M-24.548077526196646,-68.70242289009626L-14.538461082623245,-52.259921835616666L-22.690426157978838,-68.45433800794322z" style="fill:rgb(67,34,190)"/><path d="M-10.809822123723745,-54.799950197392036L-20.79529726036049,-69.73835897480062L-22.690426157978838,-68.45433800794322z" style="fill:rgb(187,64,221)"/><path d="M-26.318336125033355,-71.99673008308336L-26.363558512034672,-70.33150633763651L-25.364957577470975,-72.64171063058987z" style="fill:rgb(83,212,212)"/><path d="M37.9475636987089,-68.75414436012002L39.55827367446632,-65.16385835231208L41.63045692837212,-62.70798984026248z" style="fill:rgb(18,62,136)"/><path d="M-25.364957577470975,-72.64171063058987L-25.635084224967514,-73.17779506055112L-27.022664083794517,-75.93153080454904z" style="fill:rgb(127,37,217)"/><path d="M-26.318336125033355,-71.99673008308336L-26.35964272747241,-70.47569725429366L-26.363558512034672,-70.33150633763651z" style="fill:rgb(127,127,127)"/><path d="M45.89640004109647,-77.57808930442451L40.02078018060575,-66.30301489682438L53.65291149132253,-76.29403944588782zM38.48762319416629,-72.15951386342793L37.9475636987089,-68.75414436012002L40.02078018060575,-66.30301489682438zM-18.842034441737564,-74.0675556757491L-19.780583800387802,-74.18903291299434L-18.874470729216213,-72.40279468112139z" style="fill:rgb(83,212,212)"/><path d="M54.505397604289044,-73.25511516885814L55.21368752073728,-72.67739839591927L53.65291149132253,-76.29403944588782zM54.505397604289044,-73.25511516885814L56.06885734272409,-69.63570841940069L55.21368752073728,-72.67739839591927z" style="fill:rgb(246,170,145)"/><path d="M-22.78081128471026,-77.66078120470387L-25.641005742767494,-76.86521545044451L-25.709205221630924,-76.81912913416473zM-22.78081128471026,-77.66078120470387L-25.709205221630924,-76.81912913416473L-27.022664083794517,-75.93153080454904z" style="fill:rgb(83,212,212)"/><path d="M37.9475636987089,-68.75414436012002L41.63045692837212,-62.70798984026248L40.02078018060575,-66.30301489682438z" style="fill:rgb(18,62,136)"/><path d="M-26.39777629878179,-69.0715093499853L-26.401079195066615,-68.94988681605997L-26.259398654974643,-68.93096376377076zM-26.39777629878179,-69.0715093499853L-26.259398654974643,-68.93096376377076L-24.548077526196646,-68.70242289009626zM-26.39777629878179,-69.0715093499853L-22.690426157978838,-68.45433800794322L-26.39035910026656,-69.34462840228149z" style="fill:rgb(83,212,212)"/><path d="M-26.39035910026656,-69.34462840228149L-26.53887209902226,-69.63795521769892L-28.055921265534113,-72.63424890627905z" style="fill:rgb(127,37,217)"/><path d="M40.02078018060575,-66.30301489682438L41.63045692837212,-62.70798984026248L45.67077489709836,-61.99564428830224z" style="fill:rgb(62,34,186)"/><path d="M-20.519169716209063,-75.7042684482892L-22.78081128471026,-77.66078120470387L-27.022664083794517,-75.93153080454904z" style="fill:rgb(83,212,212)"/><path d="M-18.874470729216213,-72.40279468112139L-19.258573666796135,-73.17382511647098L-19.65149870184726,-73.96255776792148z" style="fill:rgb(226,102,203)"/><path d="M-26.39777629878179,-69.0715093499853L-24.548077526196646,-68.70242289009626L-22.690426157978838,-68.45433800794322zM-27.022664083794517,-75.93153080454904L-28.02734493756474,-73.620695647635L-28.055921265534113,-72.63424890627905zM-20.519169716209063,-75.7042684482892L-21.97127026897579,-77.55768629909178L-22.78081128471026,-77.66078120470387z" style="fill:rgb(83,212,212)"/><path d="M-24.349874013298077,-71.75093711099055L-26.53887209902226,-69.63795521769892L-26.39035910026656,-69.34462840228149z" style="fill:rgb(57,36,182)"/><path d="M-20.519169716209063,-75.7042684482892L-21.42408734478612,-77.4880105050629L-21.97127026897579,-77.55768629909178z" style="fill:rgb(83,212,212)"/><path d="M-18.874470729216213,-72.40279468112139L-20.5225802936833,-75.54380318910295L-18.893693863294512,-71.4161859692237z" style="fill:rgb(247,158,158)"/><path d="M-18.893693863294512,-71.4161859692237L-20.79529726036049,-69.73835897480062L-18.901383036541453,-71.02155103290843zM-27.022664083794517,-75.93153080454904L-28.055921265534113,-72.63424890627905L-20.519169716209063,-75.7042684482892z" style="fill:rgb(83,212,212)"/><path d="M-18.874470729216213,-72.40279468112139L-19.65149870184726,-73.96255776792148L-20.5225802936833,-75.54380318910295z" style="fill:rgb(247,158,158)"/><path d="M40.02078018060575,-66.30301489682438L44.06977509837506,-65.59841476711102L53.65291149132253,-76.29403944588782zM-18.893693863294512,-71.4161859692237L-22.690426157978838,-68.45433800794322L-20.79529726036049,-69.73835897480062z" style="fill:rgb(83,212,212)"/><path d="M52.702297272052995,-69.7409219737733L54.275677514191266,-66.12358610859178L56.06885734272409,-69.63570841940069z" style="fill:rgb(236,118,193)"/><path d="M-20.519169716209063,-75.7042684482892L-19.65149870184726,-73.96255776792148L-19.258573666796135,-73.17382511647098z" style="fill:rgb(34,47,159)"/><path d="M52.702297272052995,-69.7409219737733L54.505397604289044,-73.25511516885814L53.65291149132253,-76.29403944588782z" style="fill:rgb(83,212,212)"/><path d="M52.702297272052995,-69.7409219737733L56.06885734272409,-69.63570841940069L54.505397604289044,-73.25511516885814z" style="fill:rgb(236,118,193)"/><path d="M-26.39035910026656,-69.34462840228149L-22.690426157978838,-68.45433800794322L-24.349874013298077,-71.75093711099055zM-24.349874013298077,-71.75093711099055L-28.055921265534113,-72.63424890627905L-26.53887209902226,-69.63795521769892z" style="fill:rgb(57,36,182)"/><path d="M-20.39252891357097,-74.42209037908749L-22.690426157978838,-68.45433800794322L-18.893693863294512,-71.4161859692237z" style="fill:rgb(197,72,218)"/><path d="M40.02078018060575,-66.30301489682438L45.67077489709836,-61.99564428830224L44.06977509837506,-65.59841476711102z" style="fill:rgb(62,34,186)"/><path d="M-19.65149870184726,-73.96255776792148L-20.519169716209063,-75.7042684482892L-20.5225802936833,-75.54380318910295z" style="fill:rgb(247,158,158)"/><path d="M44.06977509837506,-65.59841476711102L45.67077489709836,-61.99564428830224L50.39341756796269,-63.26919298799748z" style="fill:rgb(127,37,217)"/><path d="M-20.5225802936833,-75.54380318910295L-20.39252891357097,-74.42209037908749L-18.893693863294512,-71.4161859692237z" style="fill:rgb(247,158,158)"/><path d="M53.65291149132253,-76.29403944588782L44.06977509837506,-65.59841476711102L48.80600027037943,-66.88029756406806zM48.80600027037943,-66.88029756406806L52.702297272052995,-69.7409219737733L53.65291149132253,-76.29403944588782z" style="fill:rgb(83,212,212)"/><path d="M48.80600027037943,-66.88029756406806L50.39341756796269,-63.26919298799748L54.275677514191266,-66.12358610859178z" style="fill:rgb(192,68,220)"/><path d="M-28.055921265534113,-72.63424890627905L-24.349874013298077,-71.75093711099055L-20.519169716209063,-75.7042684482892z" style="fill:rgb(83,212,212)"/><path d="M-24.349874013298077,-71.75093711099055L-22.690426157978838,-68.45433800794322L-20.39252891357097,-74.42209037908749z" style="fill:rgb(197,72,218)"/><path d="M-20.5225802936833,-75.54380318910295L-20.540129932600163,-74.71810508410663L-20.39252891357097,-74.42209037908749z" style="fill:rgb(247,158,158)"/><path d="M-24.349874013298077,-71.75093711099055L-20.5225802936833,-75.54380318910295L-20.519169716209063,-75.7042684482892z" style="fill:rgb(83,212,212)"/><path d="M48.80600027037943,-66.88029756406806L54.275677514191266,-66.12358610859178L52.702297272052995,-69.7409219737733z" style="fill:rgb(192,68,220)"/><path d="M-24.349874013298077,-71.75093711099055L-20.540129932600163,-74.71810508410663L-20.5225802936833,-75.54380318910295z" style="fill:rgb(83,212,212)"/><path d="M44.06977509837506,-65.59841476711102L50.39341756796269,-63.26919298799748L48.80600027037943,-66.88029756406806z" style="fill:rgb(127,37,217)"/><path d="M-20.39252891357097,-74.42209037908749L-20.540129932600163,-74.71810508410663L-24.349874013298077,-71.75093711099055z" style="fill:rgb(197,72,218)"/><path d="M50.06181894741635,-71.33633232630072L49.90458513125102,-74.38221182088347L42.699019799512165,-89.4324483890753z" style="fill:rgb(247,158,158)"/><path d="M35.02996316207245,-85.91917949204793L42.4315512051182,-69.26349674776863L46.31602438867482,-68.76859538658817z" style="fill:rgb(67,34,190)"/><path d="M38.95397268237655,-85.45927268237165L46.31602438867482,-68.76859538658817L50.06181894741635,-71.33633232630072z" style="fill:rgb(187,64,221)"/><path d="M49.90458513125102,-74.38221182088347L42.62452052784868,-91.09289402813792L42.69256877006623,-89.5762302170566zM49.90458513125102,-74.38221182088347L42.69256877006623,-89.5762302170566L42.699019799512165,-89.4324483890753z" style="fill:rgb(247,158,158)"/><path d="M46.31602438867482,-68.76859538658817L35.179784608968205,-85.90161858529756L35.02996316207245,-85.91917949204793z" style="fill:rgb(67,34,190)"/><path d="M42.74317310821251,-88.44834168139174L50.06181894741635,-71.33633232630072L42.699019799512165,-89.4324483890753z" style="fill:rgb(247,158,158)"/><path d="M46.31602438867482,-68.76859538658817L36.98947161307218,-85.68952276251348L35.179784608968205,-85.90161858529756z" style="fill:rgb(67,34,190)"/><path d="M38.70624475627088,-91.53677943785974L37.260034879659,-90.55234379352846L40.20054786013754,-91.36750003477444z" style="fill:rgb(83,212,212)"/><path d="M42.74317310821251,-88.44834168139174L42.760834632016106,-88.05470710169412L50.06181894741635,-71.33633232630072z" style="fill:rgb(247,158,158)"/><path d="M40.85802415561412,-86.75741717198993L50.06181894741635,-71.33633232630072L42.760834632016106,-88.05470710169412z" style="fill:rgb(187,64,221)"/><path d="M36.98947161307218,-85.68952276251348L46.31602438867482,-68.76859538658817L38.95397268237655,-85.45927268237165z" style="fill:rgb(67,34,190)"/><path d="M50.06181894741635,-71.33633232630072L40.85802415561412,-86.75741717198993L38.95397268237655,-85.45927268237165z" style="fill:rgb(187,64,221)"/><path d="M34.91850447473149,-88.9584454519425L34.979419933485616,-87.29740189767752L35.8763621982635,-89.6104633282401z" style="fill:rgb(83,212,212)"/><path d="M35.8763621982635,-89.6104633282401L35.63203474514556,-90.16300515662815L34.376922578933545,-93.00140620694525z" style="fill:rgb(127,37,217)"/><path d="M34.91850447473149,-88.9584454519425L34.974144866726675,-87.44123353974858L34.979419933485616,-87.29740189767752z" style="fill:rgb(0,127,127)"/><path d="M42.62452052784868,-91.09289402813792L41.63225189688308,-91.20530931414963L42.699019799512165,-89.4324483890753zM34.376922578933545,-93.00140620694525L38.71335075862065,-94.7653547963282L35.76509843664525,-93.94530406291025z" style="fill:rgb(83,212,212)"/><path d="M42.62452052784868,-91.09289402813792L42.699019799512165,-89.4324483890753L42.69256877006623,-89.5762302170566z" style="fill:rgb(0,127,127)"/><path d="M35.015522366195036,-86.31296027363399L35.02551379367379,-86.0405049309373L35.179784608968205,-85.90161858529756zM35.02551379367379,-86.0405049309373L35.02996316207245,-85.91917949204793L35.179784608968205,-85.90161858529756zM34.376922578933545,-93.00140620694525L39.56936908857623,-94.67016722381328L38.71335075862065,-94.7653547963282zM35.015522366195036,-86.31296027363399L35.179784608968205,-85.90161858529756L36.98947161307218,-85.68952276251348z" style="fill:rgb(83,212,212)"/><path d="M33.47441566358094,-90.68788930154261L33.82750173212226,-89.8924523858925L34.979419933485616,-87.29740189767752z" style="fill:rgb(14,69,127)"/><path d="M34.376922578933545,-93.00140620694525L40.14797121866932,-94.60583536639786L39.56936908857623,-94.67016722381328z" style="fill:rgb(83,212,212)"/><path d="M35.015522366195036,-86.31296027363399L34.88120189600489,-86.61531696260937L33.50906865096424,-89.7039976674073z" style="fill:rgb(244,177,138)"/><path d="M35.015522366195036,-86.31296027363399L36.98947161307218,-85.68952276251348L38.95397268237655,-85.45927268237165z" style="fill:rgb(83,212,212)"/><path d="M42.699019799512165,-89.4324483890753L42.35231382511686,-90.2272376248734L41.99763242620005,-91.04029662121835z" style="fill:rgb(127,37,217)"/><path d="M34.376922578933545,-93.00140620694525L33.47441566358094,-90.68788930154261L33.50906865096424,-89.7039976674073zM34.376922578933545,-93.00140620694525L41.2143905510788,-92.83579262153833L40.14797121866932,-94.60583536639786z" style="fill:rgb(83,212,212)"/><path d="M37.454919069897464,-88.85780750849362L34.88120189600489,-86.61531696260937L35.015522366195036,-86.31296027363399z" style="fill:rgb(57,36,182)"/><path d="M42.699019799512165,-89.4324483890753L41.2213463851967,-92.67574937961996L42.74317310821251,-88.44834168139174z" style="fill:rgb(247,158,158)"/><path d="M42.74317310821251,-88.44834168139174L40.85802415561412,-86.75741717198993L42.760834632016106,-88.05470710169412z" style="fill:rgb(83,212,212)"/><path d="M42.699019799512165,-89.4324483890753L41.99763242620005,-91.04029662121835L41.2213463851967,-92.67574937961996z" style="fill:rgb(247,158,158)"/><path d="M42.74317310821251,-88.44834168139174L38.95397268237655,-85.45927268237165L40.85802415561412,-86.75741717198993z" style="fill:rgb(83,212,212)"/><path d="M41.2143905510788,-92.83579262153833L41.99763242620005,-91.04029662121835L42.35231382511686,-90.2272376248734z" style="fill:rgb(127,37,217)"/><path d="M34.376922578933545,-93.00140620694525L41.2213463851967,-92.67574937961996L41.2143905510788,-92.83579262153833z" style="fill:rgb(83,212,212)"/><path d="M35.015522366195036,-86.31296027363399L38.95397268237655,-85.45927268237165L37.454919069897464,-88.85780750849362z" style="fill:rgb(57,36,182)"/><path d="M34.376922578933545,-93.00140620694525L41.25713704647926,-91.85225129187013L41.2213463851967,-92.67574937961996zM34.376922578933545,-93.00140620694525L33.50906865096424,-89.7039976674073L37.454919069897464,-88.85780750849362z" style="fill:rgb(83,212,212)"/><path d="M37.454919069897464,-88.85780750849362L33.50906865096424,-89.7039976674073L34.88120189600489,-86.61531696260937z" style="fill:rgb(57,36,182)"/><path d="M41.39036606363729,-91.54708960052095L38.95397268237655,-85.45927268237165L42.74317310821251,-88.44834168139174z" style="fill:rgb(197,72,218)"/><path d="M41.99763242620005,-91.04029662121835L41.2143905510788,-92.83579262153833L41.2213463851967,-92.67574937961996zM41.2213463851967,-92.67574937961996L41.39036606363729,-91.54708960052095L42.74317310821251,-88.44834168139174z" style="fill:rgb(247,158,158)"/><path d="M34.376922578933545,-93.00140620694525L37.454919069897464,-88.85780750849362L41.25713704647926,-91.85225129187013z" style="fill:rgb(83,212,212)"/><path d="M37.454919069897464,-88.85780750849362L38.95397268237655,-85.45927268237165L41.39036606363729,-91.54708960052095z" style="fill:rgb(197,72,218)"/><path d="M41.2213463851967,-92.67574937961996L41.25713704647926,-91.85225129187013L41.39036606363729,-91.54708960052095z" style="fill:rgb(247,158,158)"/><path d="M41.39036606363729,-91.54708960052095L41.25713704647926,-91.85225129187013L37.454919069897464,-88.85780750849362z" style="fill:rgb(197,72,218)"/><path d="M-15.353903122891106,3.203682007145134L-20.012779383129217,5.432787518928045L-23.237588437583153,9.031043708339585zM-10.714715786972112,3.040196026333919L-15.353903122891106,3.203682007145134L-7.551984432682536,5.005592337569132zM-22.06300122674771,15.75548977610181L-15.353903122891106,3.203682007145134L-23.237588437583153,9.031043708339585z" style="fill:rgb(83,212,212)"/><path d="M-24.009755384327214,12.876867045186353L-22.108179482736105,16.36943293797868L-20.16099950535277,19.25121277802205z" style="fill:rgb(18,62,136)"/><path d="M-22.06300122674771,15.75548977610181L-7.551984432682536,5.005592337569132L-15.353903122891106,3.203682007145134zM-23.237588437583153,9.031043708339585L-24.009755384327214,12.876867045186353L-22.06300122674771,15.75548977610181z" style="fill:rgb(83,212,212)"/><path d="M-6.8818383804227246,8.496801974588656L-5.70522894915787,8.52690097291315L-7.551984432682536,5.005592337569132zM-6.8818383804227246,8.496801974588656L-5.030593762195236,12.019123285251414L-5.70522894915787,8.52690097291315z" style="fill:rgb(246,170,145)"/><path d="M-24.009755384327214,12.876867045186353L-20.16099950535277,19.25121277802205L-22.06300122674771,15.75548977610181z" style="fill:rgb(18,62,136)"/><path d="M-22.06300122674771,15.75548977610181L-20.16099950535277,19.25121277802205L-16.09862784207985,20.239767796986822z" style="fill:rgb(62,34,186)"/><path d="M-7.551984432682536,5.005592337569132L-22.06300122674771,15.75548977610181L-17.992295701554063,16.7371466833283z" style="fill:rgb(83,212,212)"/><path d="M-8.943452918885358,12.411478694308594L-7.080126383680836,15.9299916976774L-5.030593762195236,12.019123285251414z" style="fill:rgb(236,118,193)"/><path d="M-7.551984432682536,5.005592337569132L-8.943452918885358,12.411478694308594L-6.8818383804227246,8.496801974588656z" style="fill:rgb(83,212,212)"/><path d="M-8.943452918885358,12.411478694308594L-5.030593762195236,12.019123285251414L-6.8818383804227246,8.496801974588656z" style="fill:rgb(236,118,193)"/><path d="M-16.09862784207985,20.239767796986822L-17.992295701554063,16.7371466833283L-22.06300122674771,15.75548977610181z" style="fill:rgb(62,34,186)"/><path d="M-8.943452918885358,12.411478694308594L-7.551984432682536,5.005592337569132L-17.992295701554063,16.7371466833283z" style="fill:rgb(83,212,212)"/><path d="M-17.992295701554063,16.7371466833283L-16.09862784207985,20.239767796986822L-11.212969716239543,19.00175178515983z" style="fill:rgb(127,37,217)"/><path d="M-13.092163605528889,15.490620316848046L-11.212969716239543,19.00175178515983L-7.080126383680836,15.9299916976774zM-13.092163605528889,15.490620316848046L-7.080126383680836,15.9299916976774L-8.943452918885358,12.411478694308594z" style="fill:rgb(192,68,220)"/><path d="M-17.992295701554063,16.7371466833283L-11.212969716239543,19.00175178515983L-13.092163605528889,15.490620316848046z" style="fill:rgb(127,37,217)"/><path d="M-17.992295701554063,16.7371466833283L-13.092163605528889,15.490620316848046L-8.943452918885358,12.411478694308594z" style="fill:rgb(83,212,212)"/><path d="M-29.95655773697085,-7.024820795047064L-19.41845086541755,12.497372496111293L-15.50135360113914,13.232763682395603z" style="fill:rgb(67,34,190)"/><path d="M-21.93439140263879,-9.119089130167426L-11.525281255720978,10.480435928301716L-11.48726643956875,7.011862434622922z" style="fill:rgb(247,158,158)"/><path d="M-25.993261004188323,-6.327888941518941L-15.50135360113914,13.232763682395603L-11.525281255720978,10.480435928301716z" style="fill:rgb(187,64,221)"/><path d="M48.9552689096226,-13.360893813004918L44.21144970595542,-11.093493345017016L41.05716759906932,-7.469143998293349z" style="fill:rgb(83,212,212)"/><path d="M-11.48726643956875,7.011862434622922L-20.10456241544879,-9.269533725089586L-20.138296992027072,-7.538136359464911zM-11.48726643956875,7.011862434622922L-20.138296992027072,-7.538136359464911L-20.15333302516902,-6.766427130610809z" style="fill:rgb(247,158,158)"/><path d="M57.24912381768944,-11.624541990959028L53.80884691243902,-13.5631098385588L48.9552689096226,-13.360893813004918z" style="fill:rgb(83,212,212)"/><path d="M-24.05513992367694,-9.953648323629505L-26.066048789730722,-8.571569937336257L-28.078328377167963,-7.1885488804426z" style="fill:rgb(149,127,253)"/><path d="M-24.05513992367694,-9.953648323629505L-28.078328377167963,-7.1885488804426L-26.78752844560687,-7.985387880801114z" style="fill:rgb(83,212,212)"/><path d="M-11.48726643956875,7.011862434622922L-20.15333302516902,-6.766427130610809L-21.93439140263879,-9.119089130167426z" style="fill:rgb(247,158,158)"/><path d="M-26.78752844560687,-7.985387880801114L-21.37802188500068,-9.3977744296407L-24.05513992367694,-9.953648323629505zM48.9552689096226,-13.360893813004918L41.05716759906932,-7.469143998293349L42.71184818251996,-0.7548208756158629zM-21.37802188500068,-9.3977744296407L-22.0824831297233,-9.612046873253863L-24.05513992367694,-9.953648323629505z" style="fill:rgb(83,212,212)"/><path d="M40.4896024223677,-3.6173385600367256L42.19906992624242,-0.012066501628896779L44.42006974150205,2.8541399603648476z" style="fill:rgb(18,62,136)"/><path d="M-28.078328377167963,-7.1885488804426L-28.14630691262879,-4.685372951947985L-26.78752844560687,-7.985387880801114zM-21.37802188500068,-9.3977744296407L-20.10456241544879,-9.269533725089586L-22.0824831297233,-9.612046873253863zM48.9552689096226,-13.360893813004918L42.71184818251996,-0.7548208756158629L57.24912381768944,-11.624541990959028z" style="fill:rgb(83,212,212)"/><path d="M-15.50135360113914,13.232763682395603L-28.373789921063622,-6.746496699657449L-29.95655773697085,-7.024820795047064z" style="fill:rgb(67,34,190)"/><path d="M41.05716759906932,-7.469143998293349L40.4896024223677,-3.6173385600367256L42.71184818251996,-0.7548208756158629zM-21.37802188500068,-9.3977744296407L-20.138296992027072,-7.538136359464911L-20.10456241544879,-9.269533725089586z" style="fill:rgb(83,212,212)"/><path d="M58.1724128731579,-8.139305301175554L58.90174099572295,-7.989532718839047L57.24912381768944,-11.624541990959028z" style="fill:rgb(246,170,145)"/><path d="M-24.36904368414728,-7.444829848276803L-11.525281255720978,10.480435928301716L-21.93439140263879,-9.119089130167426z" style="fill:rgb(187,64,221)"/><path d="M-28.373789921063622,-6.746496699657449L-15.50135360113914,13.232763682395603L-25.993261004188323,-6.327888941518941z" style="fill:rgb(67,34,190)"/><path d="M58.1724128731579,-8.139305301175554L59.82799068291296,-4.502822665243025L58.90174099572295,-7.989532718839047z" style="fill:rgb(246,170,145)"/><path d="M-11.525281255720978,10.480435928301716L-24.36904368414728,-7.444829848276803L-25.993261004188323,-6.327888941518941z" style="fill:rgb(187,64,221)"/><path d="M40.4896024223677,-3.6173385600367256L44.42006974150205,2.8541399603648476L42.71184818251996,-0.7548208756158629z" style="fill:rgb(18,62,136)"/><path d="M-21.37802188500068,-9.3977744296407L-20.15333302516902,-6.766427130610809L-20.138296992027072,-7.538136359464911z" style="fill:rgb(83,212,212)"/><path d="M-20.15333302516902,-6.766427130610809L-21.37802188500068,-9.3977744296407L-23.13679858539683,-12.713595672517943z" style="fill:rgb(241,184,128)"/><path d="M42.71184818251996,-0.7548208756158629L44.42006974150205,2.8541399603648476L48.74024479395406,3.8097347860114685z" style="fill:rgb(62,34,186)"/><path d="M-29.928588388114832,-7.990313015134096L-29.51040093841541,-7.214853790332161L-28.14630691262879,-4.685372951947985z" style="fill:rgb(241,129,184)"/><path d="M-23.13679858539683,-12.713595672517943L-20.564425847153945,-7.541223139123598L-20.15333302516902,-6.766427130610809z" style="fill:rgb(241,184,128)"/><path d="M-28.560978686165154,-11.292288570473803L-21.91387119405557,-10.084548663481904L-23.13679858539683,-12.713595672517943zM-28.560978686165154,-11.292288570473803L-29.928588388114832,-7.990313015134096L-29.95655773697085,-7.024820795047064zM42.71184818251996,-0.7548208756158629L47.04196599133484,0.19331217695348082L57.24912381768944,-11.624541990959028z" style="fill:rgb(83,212,212)"/><path d="M56.25783190258839,-4.207526137132564L57.92463890815847,-0.5746571380887112L59.82799068291296,-4.502822665243025z" style="fill:rgb(236,118,193)"/><path d="M-23.13679858539683,-12.713595672517943L-21.91387119405557,-10.084548663481904L-20.564425847153945,-7.541223139123598z" style="fill:rgb(241,184,128)"/><path d="M-28.560978686165154,-11.292288570473803L-29.95655773697085,-7.024820795047064L-28.373789921063622,-6.746496699657449z" style="fill:rgb(83,212,212)"/><path d="M-20.15333302516902,-6.766427130610809L-20.564425847153945,-7.541223139123598L-21.91387119405557,-10.084548663481904z" style="fill:rgb(24,54,147)"/><path d="M56.25783190258839,-4.207526137132564L58.1724128731579,-8.139305301175554L57.24912381768944,-11.624541990959028z" style="fill:rgb(83,212,212)"/><path d="M56.25783190258839,-4.207526137132564L59.82799068291296,-4.502822665243025L58.1724128731579,-8.139305301175554z" style="fill:rgb(236,118,193)"/><path d="M42.71184818251996,-0.7548208756158629L48.74024479395406,3.8097347860114685L47.04196599133484,0.19331217695348082z" style="fill:rgb(62,34,186)"/><path d="M-28.560978686165154,-11.292288570473803L-21.93439140263879,-9.119089130167426L-21.91387119405557,-10.084548663481904z" style="fill:rgb(83,212,212)"/><path d="M47.04196599133484,0.19331217695348082L48.74024479395406,3.8097347860114685L53.78446172602233,2.531540814792227z" style="fill:rgb(127,37,217)"/><path d="M-28.560978686165154,-11.292288570473803L-28.373789921063622,-6.746496699657449L-25.993261004188323,-6.327888941518941zM-28.560978686165154,-11.292288570473803L-24.36904368414728,-7.444829848276803L-21.93439140263879,-9.119089130167426z" style="fill:rgb(83,212,212)"/><path d="M-20.15333302516902,-6.766427130610809L-21.91387119405557,-10.084548663481904L-21.93439140263879,-9.119089130167426z" style="fill:rgb(247,158,158)"/><path d="M57.24912381768944,-11.624541990959028L47.04196599133484,0.19331217695348082L52.10168441015363,-1.0938115942662616zM52.10168441015363,-1.0938115942662616L56.25783190258839,-4.207526137132564L57.24912381768944,-11.624541990959028zM-28.560978686165154,-11.292288570473803L-25.993261004188323,-6.327888941518941L-24.36904368414728,-7.444829848276803z" style="fill:rgb(83,212,212)"/><path d="M52.10168441015363,-1.0938115942662616L53.78446172602233,2.531540814792227L57.92463890815847,-0.5746571380887112zM52.10168441015363,-1.0938115942662616L57.92463890815847,-0.5746571380887112L56.25783190258839,-4.207526137132564z" style="fill:rgb(192,68,220)"/><path d="M47.04196599133484,0.19331217695348082L53.78446172602233,2.531540814792227L52.10168441015363,-1.0938115942662616z" style="fill:rgb(127,37,217)"/><path d="M35.81629940448588,-24.195498277706278L45.27946363873604,-4.034844356179067L49.4329818788373,-3.3318955689857717z" style="fill:rgb(67,34,190)"/><path d="M44.1036196886738,-26.358987185313815L53.4285499671591,-6.117174515956839L53.24949467021915,-9.585773421289893z" style="fill:rgb(247,158,158)"/><path d="M40.02428076899193,-23.534010727455847L49.4329818788373,-3.3318955689857717L53.4285499671591,-6.117174515956839z" style="fill:rgb(187,64,221)"/><path d="M53.24949467021915,-9.585773421289893L45.52717149659794,-26.39803580951254L45.60481166235358,-24.667578731963538zM53.24949467021915,-9.585773421289893L45.60481166235358,-24.667578731963538L45.63941838471674,-23.89625721572458z" style="fill:rgb(247,158,158)"/><path d="M41.3349424020864,-27.046966150664378L39.31397326518615,-25.648330956260143L37.29160413951634,-24.2487244974128z" style="fill:rgb(149,127,253)"/><path d="M41.3349424020864,-27.046966150664378L37.29160413951634,-24.2487244974128L38.59476589947112,-25.05627243942546z" style="fill:rgb(83,212,212)"/><path d="M53.24949467021915,-9.585773421289893L45.63941838471674,-23.89625721572458L44.1036196886738,-26.358987185313815z" style="fill:rgb(247,158,158)"/><path d="M38.59476589947112,-25.05627243942546L44.18179956018259,-26.515010766258946L41.3349424020864,-27.046966150664378zM44.18179956018259,-26.515010766258946L43.428219843664294,-26.72294022288367L41.3349424020864,-27.046966150664378zM37.29160413951634,-24.2487244974128L37.383360717072925,-21.746704880360912L38.59476589947112,-25.05627243942546zM44.18179956018259,-26.515010766258946L45.52717149659794,-26.39803580951254L43.428219843664294,-26.72294022288367z" style="fill:rgb(83,212,212)"/><path d="M49.4329818788373,-3.3318955689857717L37.49673915903687,-23.931336067325823L35.81629940448588,-24.195498277706278z" style="fill:rgb(67,34,190)"/><path d="M44.18179956018259,-26.515010766258946L45.60481166235358,-24.667578731963538L45.52717149659794,-26.39803580951254z" style="fill:rgb(83,212,212)"/><path d="M41.65670120338607,-24.664475252953004L53.4285499671591,-6.117174515956839L44.1036196886738,-26.358987185313815z" style="fill:rgb(187,64,221)"/><path d="M37.49673915903687,-23.931336067325823L49.4329818788373,-3.3318955689857717L40.02428076899193,-23.534010727455847z" style="fill:rgb(67,34,190)"/><path d="M53.4285499671591,-6.117174515956839L41.65670120338607,-24.664475252953004L40.02428076899193,-23.534010727455847z" style="fill:rgb(187,64,221)"/><path d="M44.18179956018259,-26.515010766258946L45.63941838471674,-23.89625721572458L45.60481166235358,-24.667578731963538zM44.061683293646055,-27.32388273274361L42.60451413217778,-29.939902386938623L37.00174793489243,-28.471800068599197zM37.00174793489243,-28.471800068599197L35.78231194416481,-25.160491411560454L35.81629940448588,-24.195498277706278zM44.061683293646055,-27.32388273274361L37.00174793489243,-28.471800068599197L35.81629940448588,-24.195498277706278z" style="fill:rgb(83,212,212)"/><path d="M45.63941838471674,-23.89625721572458L45.271028014025774,-24.696592215083225L44.061683293646055,-27.32388273274361z" style="fill:rgb(127,37,217)"/><path d="M45.63941838471674,-23.89625721572458L44.061683293646055,-27.32388273274361L44.1036196886738,-26.358987185313815z" style="fill:rgb(247,158,158)"/><path d="M35.81629940448588,-24.195498277706278L40.02428076899193,-23.534010727455847L44.061683293646055,-27.32388273274361zM40.02428076899193,-23.534010727455847L44.1036196886738,-26.358987185313815L44.061683293646055,-27.32388273274361z" style="fill:rgb(83,212,212)"/><path d="M40.02428076899193,-23.534010727455847L41.65670120338607,-24.664475252953004L44.1036196886738,-26.358987185313815z" style="fill:rgb(127,159,251)"/></svg>
