<?xml version="1.0" encoding="UTF-8"?>
<!-- Generated by jsxcad -->
<!DOCTYPE svg PUBLIC "-//W3C//DTD SVG 1.1 Tiny//EN" "http://www.w3.org/Graphics/SVG/1.1/DTD/svg11-tiny.dtd">
<svg viewBox="-250 -250 500 500" width="500" height="500" xmlns="http://www.w3.org/2000/svg"><path d="M-14.360037624655948,-60.98952902812863L-18.731911502512876,-58.88801088100993L-21.755360043064236,-55.62481981285384zM-10.005408285162531,-61.27216901329749L-14.360037624655948,-60.98952902812863L-7.036368018248251,-59.63726723307965zM-20.64396335960967,-49.74637606887565L-14.360037624655948,-60.98952902812863L-21.755360043064236,-55.62481981285384z" style="fill:rgb(83,212,212)"/><path d="M-22.47508582850137,-52.21864754206682L-20.695800166039604,-48.73433755196947L-18.864334527410712,-46.257834331902366z" style="fill:rgb(18,62,136)"/><path d="M-20.64396335960967,-49.74637606887565L-7.036368018248251,-59.63726723307965L-14.360037624655948,-60.98952902812863zM-21.755360043064236,-55.62481981285384L-22.47508582850137,-52.21864754206682L-20.64396335960967,-49.74637606887565z" style="fill:rgb(83,212,212)"/><path d="M-5.30533409911377,-56.127437247823764L-7.036368018248251,-59.63726723307965L-6.4061148078124255,-56.58628666156244zM-6.4061148078124255,-56.58628666156244L-4.671140047059245,-53.07414261478344L-5.30533409911377,-56.127437247823764z" style="fill:rgb(246,170,145)"/><path d="M-22.47508582850137,-52.21864754206682L-18.864334527410712,-46.257834331902366L-20.64396335960967,-49.74637606887565z" style="fill:rgb(18,62,136)"/><path d="M-20.64396335960967,-49.74637606887565L-18.864334527410712,-46.257834331902366L-15.050769706945132,-45.510882776064435z" style="fill:rgb(62,34,186)"/><path d="M-7.036368018248251,-59.63726723307965L-20.64396335960967,-49.74637606887565L-16.823045425571653,-49.00664874187141z" style="fill:rgb(83,212,212)"/><path d="M-8.337985501919542,-53.082137103176585L-6.592393172075534,-49.57226991808028L-4.671140047059245,-53.07414261478344z" style="fill:rgb(236,118,193)"/><path d="M-7.036368018248251,-59.63726723307965L-8.337985501919542,-53.082137103176585L-6.4061148078124255,-56.58628666156244z" style="fill:rgb(83,212,212)"/><path d="M-8.337985501919542,-53.082137103176585L-4.671140047059245,-53.07414261478344L-6.4061148078124255,-56.58628666156244z" style="fill:rgb(236,118,193)"/><path d="M-20.64396335960967,-49.74637606887565L-15.050769706945132,-45.510882776064435L-16.823045425571653,-49.00664874187141z" style="fill:rgb(62,34,186)"/><path d="M-8.337985501919542,-53.082137103176585L-7.036368018248251,-59.63726723307965L-16.823045425571653,-49.00664874187141z" style="fill:rgb(83,212,212)"/><path d="M-16.823045425571653,-49.00664874187141L-15.050769706945132,-45.510882776064435L-10.467783981167383,-46.74664525305272z" style="fill:rgb(127,37,217)"/><path d="M-12.227325944121993,-50.25037658804606L-10.467783981167383,-46.74664525305272L-6.592393172075534,-49.57226991808028zM-12.227325944121993,-50.25037658804606L-6.592393172075534,-49.57226991808028L-8.337985501919542,-53.082137103176585z" style="fill:rgb(192,68,220)"/><path d="M-16.823045425571653,-49.00664874187141L-10.467783981167383,-46.74664525305272L-12.227325944121993,-50.25037658804606z" style="fill:rgb(127,37,217)"/><path d="M-16.823045425571653,-49.00664874187141L-12.227325944121993,-50.25037658804606L-8.337985501919542,-53.082137103176585z" style="fill:rgb(83,212,212)"/><path d="M-28.016281127823746,-72.13885014627627L-18.16591514905273,-52.69086577972682L-14.489365771364954,-52.162391268335675z" style="fill:rgb(67,34,190)"/><path d="M-20.49803203982222,-74.22244096928107L-10.761089062693836,-54.70225498362449L-10.727794329736488,-57.754209905216825z" style="fill:rgb(247,158,158)"/><path d="M-24.14636448024313,-77.74016124168854L-22.498060919507054,-74.44688478274769L-14.399926214283733,-58.26698111687955z" style="fill:rgb(27,52,151)"/><path d="M-27.92822476738424,-75.18439305454463L-26.26773356731084,-71.8965373853654L-18.109812895638633,-55.74345051667336z" style="fill:rgb(127,37,217)"/><path d="M-24.29901253272544,-71.64990034593256L-14.489365771364954,-52.162391268335675L-10.761089062693836,-54.70225498362449z" style="fill:rgb(187,64,221)"/><path d="M45.94036726994472,-77.47771714453697L41.49377195819685,-75.34221495335738L38.5323231526593,-72.05945651469844z" style="fill:rgb(83,212,212)"/><path d="M-10.727794329736488,-57.754209905216825L-18.792011548468864,-73.96699378220772L-20.43348552484368,-77.267106649674z" style="fill:rgb(165,51,222)"/><path d="M-28.016281127823746,-72.13885014627627L-26.350309869167013,-68.84965356029215L-18.16591514905273,-52.69086577972682z" style="fill:rgb(127,37,217)"/><path d="M53.69641028522125,-76.19323848277658L50.483485076541754,-77.79828909092804L45.94036726994472,-77.47771714453697z" style="fill:rgb(83,212,212)"/><path d="M-10.727794329736488,-57.754209905216825L-20.43348552484368,-77.267106649674L-20.472164596013776,-75.4426109262376z" style="fill:rgb(247,158,158)"/><path d="M45.94036726994472,-77.47771714453697L38.5323231526593,-72.05945651469844L40.06564187538871,-66.20281923877019z" style="fill:rgb(83,212,212)"/><path d="M37.99245402322039,-68.65408247042744L39.6028741667079,-65.06444250434484L41.67503234784268,-62.60844339944743z" style="fill:rgb(18,62,136)"/><path d="M-10.727794329736488,-57.754209905216825L-20.472164596013776,-75.4426109262376L-20.49803203982222,-74.22244096928107z" style="fill:rgb(247,158,158)"/><path d="M-22.778032214260367,-72.67931434115306L-10.761089062693836,-54.70225498362449L-18.851197228451298,-70.92094345584886z" style="fill:rgb(187,64,221)"/><path d="M-26.53161490903514,-71.94356496581345L-14.489365771364954,-52.162391268335675L-22.639867636641856,-68.353898686473z" style="fill:rgb(67,34,190)"/><path d="M45.94036726994472,-77.47771714453697L40.06564187538871,-66.20281923877019L53.69641028522125,-76.19323848277658z" style="fill:rgb(83,212,212)"/><path d="M-14.489365771364954,-52.162391268335675L-26.53161490903514,-71.94356496581345L-28.016281127823746,-72.13885014627627z" style="fill:rgb(67,34,190)"/><path d="M38.5323231526593,-72.05945651469844L37.99245402322039,-68.65408247042744L40.06564187538871,-66.20281923877019z" style="fill:rgb(83,212,212)"/><path d="M-24.29901253272544,-71.64990034593256L-22.639867636641856,-68.353898686473L-14.489365771364954,-52.162391268335675z" style="fill:rgb(127,37,217)"/><path d="M54.54897167605352,-73.15424041153733L55.256905313763006,-72.57725298290318L53.69641028522125,-76.19323848277658zM54.54897167605352,-73.15424041153733L56.112153357171835,-69.53548757936312L55.256905313763006,-72.57725298290318z" style="fill:rgb(246,170,145)"/><path d="M-10.761089062693836,-54.70225498362449L-22.778032214260367,-72.67931434115306L-24.29901253272544,-71.64990034593256z" style="fill:rgb(187,64,221)"/><path d="M37.99245402322039,-68.65408247042744L41.67503234784268,-62.60844339944743L40.06564187538871,-66.20281923877019z" style="fill:rgb(18,62,136)"/><path d="M-26.37178219115789,-76.23623057118682L-21.920869206542015,-77.45661269313133L-24.14636448024313,-77.74016124168854z" style="fill:rgb(83,212,212)"/><path d="M-20.43348552484368,-77.267106649674L-24.14636448024313,-77.74016124168854L-21.920869206542015,-77.45661269313133z" style="fill:rgb(100,2,134)"/><path d="M-26.37178219115789,-76.23623057118682L-20.43348552484368,-77.267106649674L-21.920869206542015,-77.45661269313133z" style="fill:rgb(83,212,212)"/><path d="M40.06564187538871,-66.20281923877019L41.67503234784268,-62.60844339944743L45.715105474397866,-61.89588483768174z" style="fill:rgb(62,34,186)"/><path d="M-18.792011548468864,-73.96699378220772L-20.43348552484368,-77.267106649674L-20.472164596013776,-75.4426109262376z" style="fill:rgb(247,158,158)"/><path d="M-26.37178219115789,-76.23623057118682L-20.472164596013776,-75.4426109262376L-20.43348552484368,-77.267106649674zM-24.29901253272544,-71.64990034593256L-26.37178219115789,-76.23623057118682L-27.92822476738424,-75.18439305454463z" style="fill:rgb(83,212,212)"/><path d="M-20.49803203982222,-74.22244096928107L-18.851197228451298,-70.92094345584886L-18.792011548468864,-73.96699378220772z" style="fill:rgb(247,158,158)"/><path d="M-28.016281127823746,-72.13885014627627L-26.350309869167013,-68.84965356029215L-22.639867636641856,-68.353898686473z" style="fill:rgb(67,34,190)"/><path d="M40.06564187538871,-66.20281923877019L44.114395588863474,-65.49799847766708L53.69641028522125,-76.19323848277658z" style="fill:rgb(83,212,212)"/><path d="M52.74615204913429,-69.64010349840707L54.31924284471112,-66.02342290319257L56.112153357171835,-69.53548757936312z" style="fill:rgb(236,118,193)"/><path d="M-24.29901253272544,-71.64990034593256L-27.92822476738424,-75.18439305454463L-27.963380851845425,-73.96847625382108zM52.74615204913429,-69.64010349840707L54.54897167605352,-73.15424041153733L53.69641028522125,-76.19323848277658z" style="fill:rgb(83,212,212)"/><path d="M52.74615204913429,-69.64010349840707L56.112153357171835,-69.53548757936312L54.54897167605352,-73.15424041153733z" style="fill:rgb(236,118,193)"/><path d="M-18.792011548468864,-73.96699378220772L-20.472164596013776,-75.4426109262376L-20.49803203982222,-74.22244096928107z" style="fill:rgb(247,158,158)"/><path d="M-26.37178219115789,-76.23623057118682L-20.49803203982222,-74.22244096928107L-20.472164596013776,-75.4426109262376z" style="fill:rgb(83,212,212)"/><path d="M40.06564187538871,-66.20281923877019L45.715105474397866,-61.89588483768174L44.114395588863474,-65.49799847766708z" style="fill:rgb(62,34,186)"/><path d="M44.114395588863474,-65.49799847766708L45.715105474397866,-61.89588483768174L50.437371898688816,-63.169203161428435z" style="fill:rgb(127,37,217)"/><path d="M-22.639867636641856,-68.353898686473L-26.53161490903514,-71.94356496581345L-28.016281127823746,-72.13885014627627z" style="fill:rgb(67,34,190)"/><path d="M-26.37178219115789,-76.23623057118682L-22.203482972918145,-73.06817152050958L-20.49803203982222,-74.22244096928107zM-24.29901253272544,-71.64990034593256L-27.963380851845425,-73.96847625382108L-28.016281127823746,-72.13885014627627zM53.69641028522125,-76.19323848277658L44.114395588863474,-65.49799847766708L48.8502468280208,-66.7796530695828z" style="fill:rgb(83,212,212)"/><path d="M-24.29901253272544,-71.64990034593256L-22.639867636641856,-68.353898686473L-18.851197228451298,-70.92094345584886z" style="fill:rgb(187,64,221)"/><path d="M48.8502468280208,-66.7796530695828L52.74615204913429,-69.64010349840707L53.69641028522125,-76.19323848277658zM-24.29901253272544,-71.64990034593256L-22.203482972918145,-73.06817152050958L-26.37178219115789,-76.23623057118682z" style="fill:rgb(83,212,212)"/><path d="M48.8502468280208,-66.7796530695828L50.437371898688816,-63.169203161428435L54.31924284471112,-66.02342290319257z" style="fill:rgb(192,68,220)"/><path d="M-18.851197228451298,-70.92094345584886L-20.49803203982222,-74.22244096928107L-22.203482972918145,-73.06817152050958zM-22.778032214260367,-72.67931434115306L-18.851197228451298,-70.92094345584886L-20.49803203982222,-74.22244096928107z" style="fill:rgb(187,64,221)"/><path d="M-26.53161490903514,-71.94356496581345L-22.639867636641856,-68.353898686473L-24.29901253272544,-71.64990034593256zM-22.639867636641856,-68.353898686473L-24.29901253272544,-71.64990034593256L-26.53161490903514,-71.94356496581345z" style="fill:rgb(67,34,190)"/><path d="M-18.851197228451298,-70.92094345584886L-22.203482972918145,-73.06817152050958L-22.778032214260367,-72.67931434115306z" style="fill:rgb(187,64,221)"/><path d="M-24.29901253272544,-71.64990034593256L-28.016281127823746,-72.13885014627627L-26.53161490903514,-71.94356496581345z" style="fill:rgb(108,1,122)"/><path d="M-18.851197228451298,-70.92094345584886L-22.778032214260367,-72.67931434115306L-24.29901253272544,-71.64990034593256z" style="fill:rgb(187,64,221)"/><path d="M48.8502468280208,-66.7796530695828L54.31924284471112,-66.02342290319257L52.74615204913429,-69.64010349840707z" style="fill:rgb(192,68,220)"/><path d="M44.114395588863474,-65.49799847766708L50.437371898688816,-63.169203161428435L48.8502468280208,-66.7796530695828z" style="fill:rgb(127,37,217)"/><path d="M33.56911966595435,-89.20649802478525L42.47612250897972,-69.16320304390956L46.36035558423691,-68.66809417651264z" style="fill:rgb(67,34,190)"/><path d="M41.31980394976944,-91.35449898953084L50.10577840701805,-71.2356678119919L49.94842113736423,-74.28158500282292z" style="fill:rgb(247,158,158)"/><path d="M37.26168705632815,-94.82779321171779L38.751646423522985,-91.43334660727098L46.069891905104484,-74.76082577242295z" style="fill:rgb(127,37,217)"/><path d="M33.46199838280654,-92.2440975295344L34.964281608841794,-88.85517213784081L42.342973489456455,-72.20996549017548z" style="fill:rgb(189,65,220)"/><path d="M37.5008666352307,-88.75364574998245L46.36035558423691,-68.66809417651264L50.10577840701805,-71.2356678119919z" style="fill:rgb(187,64,221)"/><path d="M41.18770040003072,-94.39099279973075L42.66968363421541,-90.98924012458826L49.94842113736423,-74.28158500282292z" style="fill:rgb(127,127,127)"/><path d="M49.94842113736423,-74.28158500282292L41.18770040003072,-94.39099279973075L41.26686090017441,-92.57142894606707z" style="fill:rgb(247,158,158)"/><path d="M33.56911966595435,-89.20649802478525L46.36035558423691,-68.66809417651264L37.03526355867959,-85.58608873525381z" style="fill:rgb(67,34,190)"/><path d="M49.94842113736423,-74.28158500282292L41.26686090017441,-92.57142894606707L41.31980394976944,-91.35449898953084z" style="fill:rgb(247,158,158)"/><path d="M35.139410648483725,-89.0256345512171L37.03526355867959,-85.58608873525381L46.36035558423691,-68.66809417651264z" style="fill:rgb(194,81,225)"/><path d="M41.31980394976944,-91.35449898953084L42.80612927365295,-87.95099093392093L50.10577840701805,-71.2356678119919z" style="fill:rgb(240,127,185)"/><path d="M39.029038381193054,-89.7943971483707L50.10577840701805,-71.2356678119919L42.80612927365295,-87.95099093392093z" style="fill:rgb(187,64,221)"/><path d="M35.139410648483725,-89.0256345512171L46.36035558423691,-68.66809417651264L38.999642142291364,-85.35573630793257z" style="fill:rgb(67,34,190)"/><path d="M37.5008666352307,-88.75364574998245L38.999642142291364,-85.35573630793257L46.36035558423691,-68.66809417651264z" style="fill:rgb(42,42,168)"/><path d="M50.10577840701805,-71.2356678119919L39.029038381193054,-89.7943971483707L37.5008666352307,-88.75364574998245z" style="fill:rgb(187,64,221)"/><path d="M37.26168705632815,-94.82779321171779L35.74240504158118,-93.79471996072243L33.46199838280654,-92.2440975295344z" style="fill:rgb(154,120,252)"/><path d="M37.26168705632815,-94.82779321171779L33.46199838280654,-92.2440975295344L33.50476469400797,-91.0313851125016zM37.26168705632815,-94.82779321171779L33.50476469400797,-91.0313851125016L33.56911966595435,-89.20649802478525z" style="fill:rgb(83,212,212)"/><path d="M42.66968363421541,-90.98924012458826L41.18770040003072,-94.39099279973075L41.26686090017441,-92.57142894606707z" style="fill:rgb(247,158,158)"/><path d="M37.26168705632815,-94.82779321171779L41.26686090017441,-92.57142894606707L41.18770040003072,-94.39099279973075z" style="fill:rgb(83,212,212)"/><path d="M41.31980394976944,-91.35449898953084L42.80612927365295,-87.95099093392093L42.66968363421541,-90.98924012458826z" style="fill:rgb(247,158,158)"/><path d="M37.26168705632815,-94.82779321171779L33.56911966595435,-89.20649802478525L35.139410648483725,-89.0256345512171z" style="fill:rgb(83,212,212)"/><path d="M42.66968363421541,-90.98924012458826L41.26686090017441,-92.57142894606707L41.31980394976944,-91.35449898953084z" style="fill:rgb(247,158,158)"/><path d="M37.26168705632815,-94.82779321171779L41.31980394976944,-91.35449898953084L41.26686090017441,-92.57142894606707z" style="fill:rgb(83,212,212)"/><path d="M37.03526355867959,-85.58608873525381L35.139410648483725,-89.0256345512171L33.56911966595435,-89.20649802478525z" style="fill:rgb(67,34,190)"/><path d="M37.26168705632815,-94.82779321171779L35.139410648483725,-89.0256345512171L37.5008666352307,-88.75364574998245zM37.26168705632815,-94.82779321171779L39.029038381193054,-89.7943971483707L41.31980394976944,-91.35449898953084z" style="fill:rgb(83,212,212)"/><path d="M37.03526355867959,-85.58608873525381L38.999642142291364,-85.35573630793257L37.5008666352307,-88.75364574998245z" style="fill:rgb(67,34,190)"/><path d="M37.5008666352307,-88.75364574998245L38.999642142291364,-85.35573630793257L42.80612927365295,-87.95099093392093z" style="fill:rgb(187,64,221)"/><path d="M37.26168705632815,-94.82779321171779L37.5008666352307,-88.75364574998245L39.029038381193054,-89.7943971483707z" style="fill:rgb(83,212,212)"/><path d="M37.03526355867959,-85.58608873525381L37.5008666352307,-88.75364574998245L35.139410648483725,-89.0256345512171z" style="fill:rgb(67,34,190)"/><path d="M39.029038381193054,-89.7943971483707L42.80612927365295,-87.95099093392093L41.31980394976944,-91.35449898953084zM42.80612927365295,-87.95099093392093L41.31980394976944,-91.35449898953084L39.029038381193054,-89.7943971483707z" style="fill:rgb(187,64,221)"/><path d="M35.139410648483725,-89.0256345512171L38.999642142291364,-85.35573630793257L37.5008666352307,-88.75364574998245z" style="fill:rgb(67,34,190)"/><path d="M42.80612927365295,-87.95099093392093L39.029038381193054,-89.7943971483707L37.5008666352307,-88.75364574998245z" style="fill:rgb(187,64,221)"/><path d="M-15.301977658932866,3.3014604436607304L-19.96042257527755,5.5303401631673506L-23.184829400476804,9.128439368395036zM-10.663116698475834,3.1381997091111122L-15.301977658932866,3.3014604436607304L-7.5005057738308825,5.103748917000436zM-22.0099814607249,15.852934180493317L-15.301977658932866,3.3014604436607304L-23.184829400476804,9.128439368395036z" style="fill:rgb(83,212,212)"/><path d="M-23.956750459769825,12.97422224378029L-22.055533865085895,16.466128199523034L-20.108340471020906,19.347994192541222z" style="fill:rgb(18,62,136)"/><path d="M-22.0099814607249,15.852934180493317L-7.5005057738308825,5.103748917000436L-15.301977658932866,3.3014604436607304zM-23.184829400476804,9.128439368395036L-23.956750459769825,12.97422224378029L-22.0099814607249,15.852934180493317z" style="fill:rgb(83,212,212)"/><path d="M-6.830234508287304,8.594987941867066L-5.654099444961159,8.624391802187514L-7.5005057738308825,5.103748917000436zM-6.830234508287304,8.594987941867066L-4.979340606586277,12.116640848771617L-5.654099444961159,8.624391802187514z" style="fill:rgb(246,170,145)"/><path d="M-23.956750459769825,12.97422224378029L-20.108340471020906,19.347994192541222L-22.0099814607249,15.852934180493317z" style="fill:rgb(18,62,136)"/><path d="M-22.0099814607249,15.852934180493317L-20.108340471020906,19.347994192541222L-16.04620126269552,20.336737998782503z" style="fill:rgb(62,34,186)"/><path d="M-7.5005057738308825,5.103748917000436L-22.0099814607249,15.852934180493317L-17.939507755212944,16.83478429543597z" style="fill:rgb(83,212,212)"/><path d="M-8.891511256328869,12.50955943278123L-7.028539846392885,16.02740295259946L-4.979340606586277,12.116640848771617z" style="fill:rgb(236,118,193)"/><path d="M-7.5005057738308825,5.103748917000436L-8.891511256328869,12.50955943278123L-6.830234508287304,8.594987941867066z" style="fill:rgb(83,212,212)"/><path d="M-8.891511256328869,12.50955943278123L-4.979340606586277,12.116640848771617L-6.830234508287304,8.594987941867066z" style="fill:rgb(236,118,193)"/><path d="M-16.04620126269552,20.336737998782503L-17.939507755212944,16.83478429543597L-22.0099814607249,15.852934180493317z" style="fill:rgb(62,34,186)"/><path d="M-8.891511256328869,12.50955943278123L-7.5005057738308825,5.103748917000436L-17.939507755212944,16.83478429543597z" style="fill:rgb(83,212,212)"/><path d="M-17.939507755212944,16.83478429543597L-16.04620126269552,20.336737998782503L-11.160944039044786,19.098958375858807z" style="fill:rgb(127,37,217)"/><path d="M-13.039780045373012,15.588495586655036L-11.160944039044786,19.098958375858807L-7.028539846392885,16.02740295259946zM-13.039780045373012,15.588495586655036L-7.028539846392885,16.02740295259946L-8.891511256328869,12.50955943278123z" style="fill:rgb(192,68,220)"/><path d="M-17.939507755212944,16.83478429543597L-11.160944039044786,19.098958375858807L-13.039780045373012,15.588495586655036z" style="fill:rgb(127,37,217)"/><path d="M-17.939507755212944,16.83478429543597L-13.039780045373012,15.588495586655036L-8.891511256328869,12.50955943278123z" style="fill:rgb(83,212,212)"/><path d="M-29.90186741016209,-6.92350697541955L-19.365779212466613,12.594949052639064L-15.44891550243679,13.330527554106228z" style="fill:rgb(67,34,190)"/><path d="M-21.880371014641003,-9.017370255548135L-11.473255127339652,10.57839534418312L-11.43541549694472,7.109827228565519z" style="fill:rgb(247,158,158)"/><path d="M-25.938807862999678,-6.226370510377215L-15.44891550243679,13.330527554106228L-11.473255127339652,10.57839534418312z" style="fill:rgb(187,64,221)"/><path d="M-11.43541549694472,7.109827228565519L-20.051066663152476,-9.168461276975837L-20.06282834542385,-8.563131571971526z" style="fill:rgb(247,158,158)"/><path d="M49.00187349732945,-13.259970863306604L44.258495894071764,-10.992804032334082L41.10460548801136,-7.368610677360116z" style="fill:rgb(83,212,212)"/><path d="M-21.850899559146697,-10.407542402334364L-11.43541549694472,7.109827228565519L-20.06282834542385,-8.563131571971526z" style="fill:rgb(247,158,158)"/><path d="M-29.90186741016209,-6.92350697541955L-28.118181623283867,-3.619168566526426L-19.365779212466613,12.594949052639064z" style="fill:rgb(50,38,176)"/><path d="M57.29519142665046,-11.523210600500093L53.85508328261391,-13.461947533001453L49.00187349732945,-13.259970863306604zM-24.001409730313732,-9.852779051837874L-28.040579147119978,-6.482527386964155L-24.01545126709424,-9.249460823175648zM-24.01545126709424,-9.249460823175648L-22.028868627711326,-9.511076127492212L-24.001409730313732,-9.852779051837874zM-24.001409730313732,-9.852779051837874L-28.024172993496475,-7.08787630484712L-28.040579147119978,-6.482527386964155zM49.00187349732945,-13.259970863306604L41.10460548801136,-7.368610677360116L42.75946640274445,-0.6542145076768944z" style="fill:rgb(83,212,212)"/><path d="M40.537254967043445,-3.5168363768152076L42.246394293750534,0.0877435955729401L44.46736348221478,2.954050775886764z" style="fill:rgb(18,62,136)"/><path d="M-11.43541549694472,7.109827228565519L-21.850899559146697,-10.407542402334364L-21.880371014641003,-9.017370255548135z" style="fill:rgb(247,158,158)"/><path d="M-24.01545126709424,-9.249460823175648L-20.051066663152476,-9.168461276975837L-22.028868627711326,-9.511076127492212z" style="fill:rgb(83,212,212)"/><path d="M-24.314762833086224,-7.34323116202899L-11.473255127339652,10.57839534418312L-20.118462974351655,-5.699841409769671z" style="fill:rgb(187,64,221)"/><path d="M49.00187349732945,-13.259970863306604L42.75946640274445,-0.6542145076768944L57.29519142665046,-11.523210600500093zM-24.01545126709424,-9.249460823175648L-20.06282834542385,-8.563131571971526L-20.051066663152476,-9.168461276975837z" style="fill:rgb(83,212,212)"/><path d="M-15.44891550243679,13.330527554106228L-28.31919415060493,-6.645101142889921L-29.90186741016209,-6.92350697541955z" style="fill:rgb(67,34,190)"/><path d="M41.10460548801136,-7.368610677360116L40.537254967043445,-3.5168363768152076L42.75946640274445,-0.6542145076768944z" style="fill:rgb(83,212,212)"/><path d="M58.218563848351096,-8.037931615037161L58.94749114988038,-7.888899597298205L57.29519142665046,-11.523210600500093z" style="fill:rgb(246,170,145)"/><path d="M-28.31919415060493,-6.645101142889921L-15.44891550243679,13.330527554106228L-25.938807862999678,-6.226370510377215z" style="fill:rgb(67,34,190)"/><path d="M58.218563848351096,-8.037931615037161L59.873827161104195,-4.402150122091365L58.94749114988038,-7.888899597298205z" style="fill:rgb(246,170,145)"/><path d="M-11.473255127339652,10.57839534418312L-24.314762833086224,-7.34323116202899L-25.938807862999678,-6.226370510377215z" style="fill:rgb(187,64,221)"/><path d="M40.537254967043445,-3.5168363768152076L44.46736348221478,2.954050775886764L42.75946640274445,-0.6542145076768944z" style="fill:rgb(18,62,136)"/><path d="M-25.78005636232273,-12.560137975010663L-29.819082008109284,-9.786745783811803L-29.84161431323042,-9.007435693906965z" style="fill:rgb(83,212,212)"/><path d="M42.75946640274445,-0.6542145076768944L44.46736348221478,2.954050775886764L48.78725814430871,3.9098511221327117z" style="fill:rgb(62,34,186)"/><path d="M-20.425992922686106,-6.278895575436093L-20.118462974351655,-5.699841409769671L-20.06282834542385,-8.563131571971526z" style="fill:rgb(247,158,158)"/><path d="M-25.78005636232273,-12.560137975010663L-29.84161431323042,-9.007435693906965L-29.90186741016209,-6.92350697541955z" style="fill:rgb(83,212,212)"/><path d="M-20.06282834542385,-8.563131571971526L-21.81967294194,-11.880502753133516L-20.425992922686106,-6.278895575436093zM-20.06282834542385,-8.563131571971526L-21.81967294194,-11.880502753133516L-21.850899559146697,-10.407542402334364z" style="fill:rgb(247,158,158)"/><path d="M-25.78005636232273,-12.560137975010663L-21.850899559146697,-10.407542402334364L-21.81967294194,-11.880502753133516zM42.75946640274445,-0.6542145076768944L47.08930757902797,0.29412754886413134L57.29519142665046,-11.523210600500093z" style="fill:rgb(83,212,212)"/><path d="M56.30430094530783,-4.106251941906727L57.970780956491254,-0.47408554938363845L59.873827161104195,-4.402150122091365z" style="fill:rgb(236,118,193)"/><path d="M-25.78005636232273,-12.560137975010663L-29.90186741016209,-6.92350697541955L-28.31919415060493,-6.645101142889921zM56.30430094530783,-4.106251941906727L58.218563848351096,-8.037931615037161L57.29519142665046,-11.523210600500093z" style="fill:rgb(83,212,212)"/><path d="M56.30430094530783,-4.106251941906727L59.873827161104195,-4.402150122091365L58.218563848351096,-8.037931615037161z" style="fill:rgb(236,118,193)"/><path d="M-25.78005636232273,-12.560137975010663L-21.880371014641003,-9.017370255548135L-21.850899559146697,-10.407542402334364z" style="fill:rgb(83,212,212)"/><path d="M-20.425992922686106,-6.278895575436093L-21.81967294194,-11.880502753133516L-21.850899559146697,-10.407542402334364z" style="fill:rgb(247,158,158)"/><path d="M42.75946640274445,-0.6542145076768944L48.78725814430871,3.9098511221327117L47.08930757902797,0.29412754886413134z" style="fill:rgb(62,34,186)"/><path d="M47.08930757902797,0.29412754886413134L48.78725814430871,3.9098511221327117L53.83104549044942,2.6319040583385456z" style="fill:rgb(127,37,217)"/><path d="M-25.78005636232273,-12.560137975010663L-28.31919415060493,-6.645101142889921L-25.938807862999678,-6.226370510377215z" style="fill:rgb(83,212,212)"/><path d="M-24.314762833086224,-7.34323116202899L-20.118462974351655,-5.699841409769671L-20.425992922686106,-6.278895575436093z" style="fill:rgb(187,64,221)"/><path d="M-25.78005636232273,-12.560137975010663L-24.314762833086224,-7.34323116202899L-21.880371014641003,-9.017370255548135zM57.29519142665046,-11.523210600500093L47.08930757902797,0.29412754886413134L52.148598564744006,-0.9927468370942074zM52.148598564744006,-0.9927468370942074L56.30430094530783,-4.106251941906727L57.29519142665046,-11.523210600500093zM-25.78005636232273,-12.560137975010663L-25.938807862999678,-6.226370510377215L-24.314762833086224,-7.34323116202899z" style="fill:rgb(83,212,212)"/><path d="M52.148598564744006,-0.9927468370942074L53.83104549044942,2.6319040583385456L57.970780956491254,-0.47408554938363845z" style="fill:rgb(192,68,220)"/><path d="M-20.425992922686106,-6.278895575436093L-21.850899559146697,-10.407542402334364L-21.880371014641003,-9.017370255548135z" style="fill:rgb(247,158,158)"/><path d="M-24.314762833086224,-7.34323116202899L-20.425992922686106,-6.278895575436093L-21.880371014641003,-9.017370255548135z" style="fill:rgb(187,64,221)"/><path d="M52.148598564744006,-0.9927468370942074L57.970780956491254,-0.47408554938363845L56.30430094530783,-4.106251941906727z" style="fill:rgb(192,68,220)"/><path d="M47.08930757902797,0.29412754886413134L53.83104549044942,2.6319040583385456L52.148598564744006,-0.9927468370942074z" style="fill:rgb(127,37,217)"/><path d="M35.86542351506997,-24.090838119889973L45.32675160682946,-3.9341075089218935L49.47999504637487,-3.2309567744617653z" style="fill:rgb(67,34,190)"/><path d="M44.15203291856947,-26.253904152490403L53.47514044948765,-6.016036012295924L53.29594625711128,-9.484639500015737z" style="fill:rgb(247,158,158)"/><path d="M40.07312713644954,-23.42912999492866L49.47999504637487,-3.2309567744617653L53.47514044948765,-6.016036012295924z" style="fill:rgb(187,64,221)"/><path d="M53.29594625711128,-9.484639500015737L45.575125888980516,-26.293640452311713L45.60229583360073,-25.68864865595581zM44.09158856763337,-27.643256325653294L53.29594625711128,-9.484639500015737L45.60229583360073,-25.68864865595581z" style="fill:rgb(247,158,158)"/><path d="M41.3831710898885,-26.94278973045017L37.36247653026257,-23.53969920222344L41.40777524036504,-26.3398202602094zM41.40777524036504,-26.3398202602094L43.47630945916863,-26.618654439215202L41.3831710898885,-26.94278973045017zM41.3831710898885,-26.94278973045017L37.34026068466745,-24.144751288353778L37.36247653026257,-23.53969920222344z" style="fill:rgb(83,212,212)"/><path d="M53.29594625711128,-9.484639500015737L44.09158856763337,-27.643256325653294L44.15203291856947,-26.253904152490403z" style="fill:rgb(247,158,158)"/><path d="M41.40777524036504,-26.3398202602094L45.575125888980516,-26.293640452311713L43.47630945916863,-26.618654439215202z" style="fill:rgb(83,212,212)"/><path d="M44.15203291856947,-26.253904152490403L45.730819941520984,-22.826797473694462L53.47514044948765,-6.016036012295924z" style="fill:rgb(244,175,139)"/><path d="M41.70537080535838,-24.559514964157437L53.47514044948765,-6.016036012295924L45.730819941520984,-22.826797473694462z" style="fill:rgb(187,64,221)"/><path d="M41.40777524036504,-26.3398202602094L45.60229583360073,-25.68864865595581L45.575125888980516,-26.293640452311713z" style="fill:rgb(83,212,212)"/><path d="M49.47999504637487,-3.2309567744617653L37.54575162604716,-23.826587759649104L35.86542351506997,-24.090838119889973zM37.54575162604716,-23.826587759649104L49.47999504637487,-3.2309567744617653L40.07312713644954,-23.42912999492866z" style="fill:rgb(67,34,190)"/><path d="M53.47514044948765,-6.016036012295924L41.70537080535838,-24.559514964157437L41.66108243910319,-24.528843698075136zM53.47514044948765,-6.016036012295924L41.66108243910319,-24.528843698075136L40.07312713644954,-23.42912999492866z" style="fill:rgb(187,64,221)"/><path d="M37.182343875775295,-27.932842288772196L44.027547491846384,-29.11528152632776L39.82386860446512,-29.759240156917517z" style="fill:rgb(83,212,212)"/><path d="M45.455263958011955,-23.42495220591799L45.730819941520984,-22.826797473694462L45.60229583360073,-25.68864865595581zM45.60229583360073,-25.68864865595581L44.027547491846384,-29.11528152632776L45.455263958011955,-23.42495220591799zM45.60229583360073,-25.68864865595581L44.027547491846384,-29.11528152632776L44.09158856763337,-27.643256325653294z" style="fill:rgb(247,158,158)"/><path d="M35.7645062229493,-26.952521763158686L41.66108243910319,-24.528843698075136L37.182343875775295,-27.932842288772196zM37.182343875775295,-27.932842288772196L44.09158856763337,-27.643256325653294L44.027547491846384,-29.11528152632776zM35.7645062229493,-26.952521763158686L35.86542351506997,-24.090838119889973L37.54575162604716,-23.826587759649104z" style="fill:rgb(83,212,212)"/><path d="M45.455263958011955,-23.42495220591799L44.027547491846384,-29.11528152632776L44.09158856763337,-27.643256325653294z" style="fill:rgb(247,158,158)"/><path d="M37.182343875775295,-27.932842288772196L44.15203291856947,-26.253904152490403L44.09158856763337,-27.643256325653294z" style="fill:rgb(83,212,212)"/><path d="M44.15203291856947,-26.253904152490403L45.455263958011955,-23.42495220591799L45.730819941520984,-22.826797473694462z" style="fill:rgb(127,37,217)"/><path d="M41.70537080535838,-24.559514964157437L45.730819941520984,-22.826797473694462L45.455263958011955,-23.42495220591799z" style="fill:rgb(187,64,221)"/><path d="M35.7645062229493,-26.952521763158686L37.54575162604716,-23.826587759649104L40.07312713644954,-23.42912999492866zM37.182343875775295,-27.932842288772196L41.70537080535838,-24.559514964157437L44.15203291856947,-26.253904152490403zM37.182343875775295,-27.932842288772196L41.66108243910319,-24.528843698075136L41.70537080535838,-24.559514964157437z" style="fill:rgb(83,212,212)"/><path d="M45.455263958011955,-23.42495220591799L44.09158856763337,-27.643256325653294L44.15203291856947,-26.253904152490403z" style="fill:rgb(247,158,158)"/><path d="M35.7645062229493,-26.952521763158686L40.07312713644954,-23.42912999492866L41.66108243910319,-24.528843698075136z" style="fill:rgb(83,212,212)"/><path d="M41.70537080535838,-24.559514964157437L45.455263958011955,-23.42495220591799L44.15203291856947,-26.253904152490403z" style="fill:rgb(187,64,221)"/></svg>
