<?xml version="1.0" encoding="UTF-8"?>
<!-- Generated by jsxcad -->
<!DOCTYPE svg PUBLIC "-//W3C//DTD SVG 1.1 Tiny//EN" "http://www.w3.org/Graphics/SVG/1.1/DTD/svg11-tiny.dtd">
<svg viewBox="-250 -250 500 500" width="500" height="500" xmlns="http://www.w3.org/2000/svg"><path d="M-7.036368018248251,-59.63726723307965L-14.360037624655948,-60.98952902812863L-18.731911502512876,-58.88801088100993zM-7.036368018248251,-59.63726723307965L-18.731911502512876,-58.88801088100993L-21.755360043064236,-55.62481981285384zM-7.036368018248251,-59.63726723307965L-10.005408285162531,-61.27216901329749L-14.360037624655948,-60.98952902812863z" style="fill:rgb(83,212,212)"/><path d="M-22.47508582850137,-52.21864754206682L-20.695800166039604,-48.73433755196947L-18.864334527410712,-46.257834331902366z" style="fill:rgb(18,62,136)"/><path d="M-7.036368018248251,-59.63726723307965L-21.755360043064236,-55.62481981285384L-22.47508582850137,-52.21864754206682z" style="fill:rgb(83,212,212)"/><path d="M-6.4061148078124255,-56.58628666156244L-5.30533409911377,-56.127437247823764L-7.036368018248251,-59.63726723307965zM-6.4061148078124255,-56.58628666156244L-4.671140047059245,-53.07414261478344L-5.30533409911377,-56.127437247823764z" style="fill:rgb(246,170,145)"/><path d="M-22.47508582850137,-52.21864754206682L-18.864334527410712,-46.257834331902366L-20.64396335960967,-49.74637606887565z" style="fill:rgb(18,62,136)"/><path d="M-7.036368018248251,-59.63726723307965L-22.47508582850137,-52.21864754206682L-20.64396335960967,-49.74637606887565z" style="fill:rgb(83,212,212)"/><path d="M-20.64396335960967,-49.74637606887565L-18.864334527410712,-46.257834331902366L-15.050769706945132,-45.510882776064435z" style="fill:rgb(62,34,186)"/><path d="M-7.036368018248251,-59.63726723307965L-20.64396335960967,-49.74637606887565L-16.823045425571653,-49.00664874187141z" style="fill:rgb(83,212,212)"/><path d="M-8.337985501919542,-53.082137103176585L-6.592393172075534,-49.57226991808028L-4.671140047059245,-53.07414261478344z" style="fill:rgb(236,118,193)"/><path d="M-7.036368018248251,-59.63726723307965L-8.337985501919542,-53.082137103176585L-6.4061148078124255,-56.58628666156244z" style="fill:rgb(83,212,212)"/><path d="M-8.337985501919542,-53.082137103176585L-4.671140047059245,-53.07414261478344L-6.4061148078124255,-56.58628666156244z" style="fill:rgb(236,118,193)"/><path d="M-20.64396335960967,-49.74637606887565L-15.050769706945132,-45.510882776064435L-16.823045425571653,-49.00664874187141z" style="fill:rgb(62,34,186)"/><path d="M-16.823045425571653,-49.00664874187141L-15.050769706945132,-45.510882776064435L-10.467783981167383,-46.74664525305272z" style="fill:rgb(127,37,217)"/><path d="M-7.036368018248251,-59.63726723307965L-16.823045425571653,-49.00664874187141L-12.227325944121993,-50.25037658804606zM-7.036368018248251,-59.63726723307965L-12.227325944121993,-50.25037658804606L-8.337985501919542,-53.082137103176585z" style="fill:rgb(83,212,212)"/><path d="M-12.227325944121993,-50.25037658804606L-10.467783981167383,-46.74664525305272L-6.592393172075534,-49.57226991808028zM-12.227325944121993,-50.25037658804606L-6.592393172075534,-49.57226991808028L-8.337985501919542,-53.082137103176585z" style="fill:rgb(192,68,220)"/><path d="M-16.823045425571653,-49.00664874187141L-10.467783981167383,-46.74664525305272L-12.227325944121993,-50.25037658804606z" style="fill:rgb(127,37,217)"/><path d="M-20.591369845189416,-74.23452639744374L-10.85339652023681,-54.71533466978275L-10.82065516251672,-57.69099972461386z" style="fill:rgb(247,158,158)"/><path d="M-24.29709256003654,-71.72650221493757L-18.07282251683272,-52.75423374937577L-14.488240942999143,-52.23916508125886z" style="fill:rgb(67,34,190)"/><path d="M-20.591369845189416,-74.23452639744374L-14.488240942999143,-52.23916508125886L-10.85339652023681,-54.71533466978275z" style="fill:rgb(187,64,221)"/><path d="M53.69641028522125,-76.19323848277658L45.94036726994472,-77.47771714453697L41.49377195819685,-75.34221495335738zM53.69641028522125,-76.19323848277658L41.49377195819685,-75.34221495335738L38.5323231526593,-72.05945651469844zM53.69641028522125,-76.19323848277658L50.483485076541754,-77.79828909092804L45.94036726994472,-77.47771714453697z" style="fill:rgb(83,212,212)"/><path d="M-20.591369845189416,-74.23452639744374L-10.82065516251672,-57.69099972461386L-20.528149378668815,-77.20307877384614z" style="fill:rgb(247,158,158)"/><path d="M37.99245402322039,-68.65408247042744L39.6028741667079,-65.06444250434484L41.67503234784268,-62.60844339944743z" style="fill:rgb(18,62,136)"/><path d="M53.69641028522125,-76.19323848277658L38.5323231526593,-72.05945651469844L37.99245402322039,-68.65408247042744z" style="fill:rgb(83,212,212)"/><path d="M-24.29709256003654,-71.72650221493757L-27.92137677002996,-72.20303182840408L-18.07282251683272,-52.75423374937577z" style="fill:rgb(67,34,190)"/><path d="M54.54897167605352,-73.15424041153733L55.256905313763006,-72.57725298290318L53.69641028522125,-76.19323848277658zM54.54897167605352,-73.15424041153733L56.112153357171835,-69.53548757936312L55.256905313763006,-72.57725298290318z" style="fill:rgb(246,170,145)"/><path d="M-20.591369845189416,-74.23452639744374L-24.29709256003654,-71.72650221493757L-14.488240942999143,-52.23916508125886z" style="fill:rgb(187,64,221)"/><path d="M37.99245402322039,-68.65408247042744L41.67503234784268,-62.60844339944743L40.06564187538871,-66.20281923877019z" style="fill:rgb(18,62,136)"/><path d="M53.69641028522125,-76.19323848277658L37.99245402322039,-68.65408247042744L40.06564187538871,-66.20281923877019z" style="fill:rgb(83,212,212)"/><path d="M40.06564187538871,-66.20281923877019L41.67503234784268,-62.60844339944743L45.715105474397866,-61.89588483768174z" style="fill:rgb(62,34,186)"/><path d="M-24.29709256003654,-71.72650221493757L-24.14826070464146,-77.66449804578659L-27.835807255597395,-75.1724267793987zM53.69641028522125,-76.19323848277658L40.06564187538871,-66.20281923877019L44.114395588863474,-65.49799847766708z" style="fill:rgb(83,212,212)"/><path d="M52.74615204913429,-69.64010349840707L54.31924284471112,-66.02342290319257L56.112153357171835,-69.53548757936312z" style="fill:rgb(236,118,193)"/><path d="M-24.29709256003654,-71.72650221493757L-20.528149378668815,-77.20307877384614L-24.14826070464146,-77.66449804578659zM53.69641028522125,-76.19323848277658L52.74615204913429,-69.64010349840707L54.54897167605352,-73.15424041153733z" style="fill:rgb(83,212,212)"/><path d="M52.74615204913429,-69.64010349840707L56.112153357171835,-69.53548757936312L54.54897167605352,-73.15424041153733z" style="fill:rgb(236,118,193)"/><path d="M-24.29709256003654,-71.72650221493757L-27.835807255597395,-75.1724267793987L-27.92137677002996,-72.20303182840408z" style="fill:rgb(83,212,212)"/><path d="M40.06564187538871,-66.20281923877019L45.715105474397866,-61.89588483768174L44.114395588863474,-65.49799847766708z" style="fill:rgb(62,34,186)"/><path d="M44.114395588863474,-65.49799847766708L45.715105474397866,-61.89588483768174L50.437371898688816,-63.169203161428435z" style="fill:rgb(127,37,217)"/><path d="M53.69641028522125,-76.19323848277658L44.114395588863474,-65.49799847766708L48.8502468280208,-66.7796530695828zM53.69641028522125,-76.19323848277658L48.8502468280208,-66.7796530695828L52.74615204913429,-69.64010349840707z" style="fill:rgb(83,212,212)"/><path d="M48.8502468280208,-66.7796530695828L50.437371898688816,-63.169203161428435L54.31924284471112,-66.02342290319257z" style="fill:rgb(192,68,220)"/><path d="M-24.29709256003654,-71.72650221493757L-20.591369845189416,-74.23452639744374L-20.528149378668815,-77.20307877384614z" style="fill:rgb(83,212,212)"/><path d="M48.8502468280208,-66.7796530695828L54.31924284471112,-66.02342290319257L52.74615204913429,-69.64010349840707z" style="fill:rgb(192,68,220)"/><path d="M44.114395588863474,-65.49799847766708L50.437371898688816,-63.169203161428435L48.8502468280208,-66.7796530695828z" style="fill:rgb(127,37,217)"/><path d="M41.221082679901514,-91.36567642082802L50.00826377502197,-71.24790372939529L49.85513650060583,-74.21768901900552z" style="fill:rgb(247,158,158)"/><path d="M37.49785800184831,-88.83005228479963L42.569643512122965,-69.22726534718441L46.35670225844132,-68.74473027481609z" style="fill:rgb(67,34,190)"/><path d="M41.221082679901514,-91.36567642082802L46.35670225844132,-68.74473027481609L50.00826377502197,-71.24790372939529z" style="fill:rgb(187,64,221)"/><path d="M41.221082679901514,-91.36567642082802L49.85513650060583,-74.21768901900552L41.09258693972605,-94.32627213089165z" style="fill:rgb(247,158,158)"/><path d="M37.49785800184831,-88.83005228479963L33.66447586955297,-89.27138483181655L42.569643512122965,-69.22726534718441z" style="fill:rgb(67,34,190)"/><path d="M41.221082679901514,-91.36567642082802L37.49785800184831,-88.83005228479963L46.35670225844132,-68.74473027481609z" style="fill:rgb(187,64,221)"/><path d="M37.49785800184831,-88.83005228479963L37.26465790929541,-94.75234613930043L33.5597292272583,-92.23303197759166zM37.49785800184831,-88.83005228479963L41.09258693972605,-94.32627213089165L37.26465790929541,-94.75234613930043zM37.49785800184831,-88.83005228479963L33.5597292272583,-92.23303197759166L33.66447586955297,-89.27138483181655zM37.49785800184831,-88.83005228479963L41.221082679901514,-91.36567642082802L41.09258693972605,-94.32627213089165zM-7.5005057738308825,5.103748917000436L-15.301977658932866,3.3014604436607304L-19.96042257527755,5.5303401631673506zM-7.5005057738308825,5.103748917000436L-19.96042257527755,5.5303401631673506L-23.184829400476804,9.128439368395036zM-7.5005057738308825,5.103748917000436L-10.663116698475834,3.1381997091111122L-15.301977658932866,3.3014604436607304z" style="fill:rgb(83,212,212)"/><path d="M-23.956750459769825,12.97422224378029L-22.055533865085895,16.466128199523034L-20.108340471020906,19.347994192541222z" style="fill:rgb(18,62,136)"/><path d="M-7.5005057738308825,5.103748917000436L-23.184829400476804,9.128439368395036L-23.956750459769825,12.97422224378029z" style="fill:rgb(83,212,212)"/><path d="M-6.830234508287304,8.594987941867066L-5.654099444961159,8.624391802187514L-7.5005057738308825,5.103748917000436zM-6.830234508287304,8.594987941867066L-4.979340606586277,12.116640848771617L-5.654099444961159,8.624391802187514z" style="fill:rgb(246,170,145)"/><path d="M-23.956750459769825,12.97422224378029L-20.108340471020906,19.347994192541222L-22.0099814607249,15.852934180493317z" style="fill:rgb(18,62,136)"/><path d="M-7.5005057738308825,5.103748917000436L-23.956750459769825,12.97422224378029L-22.0099814607249,15.852934180493317z" style="fill:rgb(83,212,212)"/><path d="M-22.0099814607249,15.852934180493317L-20.108340471020906,19.347994192541222L-16.04620126269552,20.336737998782503z" style="fill:rgb(62,34,186)"/><path d="M-7.5005057738308825,5.103748917000436L-22.0099814607249,15.852934180493317L-17.939507755212944,16.83478429543597z" style="fill:rgb(83,212,212)"/><path d="M-8.891511256328869,12.50955943278123L-7.028539846392885,16.02740295259946L-4.979340606586277,12.116640848771617z" style="fill:rgb(236,118,193)"/><path d="M-7.5005057738308825,5.103748917000436L-8.891511256328869,12.50955943278123L-6.830234508287304,8.594987941867066z" style="fill:rgb(83,212,212)"/><path d="M-8.891511256328869,12.50955943278123L-4.979340606586277,12.116640848771617L-6.830234508287304,8.594987941867066z" style="fill:rgb(236,118,193)"/><path d="M-22.0099814607249,15.852934180493317L-16.04620126269552,20.336737998782503L-17.939507755212944,16.83478429543597z" style="fill:rgb(62,34,186)"/><path d="M-17.939507755212944,16.83478429543597L-16.04620126269552,20.336737998782503L-11.160944039044786,19.098958375858807z" style="fill:rgb(127,37,217)"/><path d="M-7.5005057738308825,5.103748917000436L-17.939507755212944,16.83478429543597L-13.039780045373012,15.588495586655036zM-7.5005057738308825,5.103748917000436L-13.039780045373012,15.588495586655036L-8.891511256328869,12.50955943278123z" style="fill:rgb(83,212,212)"/><path d="M-13.039780045373012,15.588495586655036L-11.160944039044786,19.098958375858807L-7.028539846392885,16.02740295259946zM-13.039780045373012,15.588495586655036L-7.028539846392885,16.02740295259946L-8.891511256328869,12.50955943278123z" style="fill:rgb(192,68,220)"/><path d="M-17.939507755212944,16.83478429543597L-11.160944039044786,19.098958375858807L-13.039780045373012,15.588495586655036z" style="fill:rgb(127,37,217)"/><path d="M-20.217807891766512,-5.717283529405096L-11.571624116003152,10.560152281533618L-11.534413514347797,7.17830015184244z" style="fill:rgb(247,158,158)"/><path d="M-25.936619905229776,-6.313661319678898L-19.266517691532744,12.52629445818854L-15.447636696343762,13.243246500270105z" style="fill:rgb(67,34,190)"/><path d="M-21.979910017745603,-9.03464498919084L-15.447636696343762,13.243246500270105L-11.571624116003152,10.560152281533618z" style="fill:rgb(187,64,221)"/><path d="M-20.217807891766512,-5.717283529405096L-11.534413514347797,7.17830015184244L-20.15177084411544,-9.099188678224442z" style="fill:rgb(247,158,158)"/><path d="M57.29519142665046,-11.523210600500093L49.00187349732945,-13.259970863306604L44.258495894071764,-10.992804032334082zM57.29519142665046,-11.523210600500093L44.258495894071764,-10.992804032334082L41.10460548801136,-7.368610677360116zM57.29519142665046,-11.523210600500093L53.85508328261391,-13.461947533001453L49.00187349732945,-13.259970863306604zM-27.939885007616603,-6.5517466804289475L-24.01545126709424,-9.249460823175648L-24.00341472056434,-9.766634543216568zM-27.939885007616603,-6.5517466804289475L-24.00341472056434,-9.766634543216568L-27.925872228069757,-7.070617097438868z" style="fill:rgb(83,212,212)"/><path d="M-25.936619905229776,-6.313661319678898L-28.01720761683151,-3.688628394774068L-19.266517691532744,12.52629445818854z" style="fill:rgb(67,34,190)"/><path d="M-24.01545126709424,-9.249460823175648L-20.15177084411544,-9.099188678224442L-24.00341472056434,-9.766634543216568z" style="fill:rgb(83,212,212)"/><path d="M40.537254967043445,-3.5168363768152076L42.246394293750534,0.0877435955729401L44.46736348221478,2.954050775886764z" style="fill:rgb(18,62,136)"/><path d="M57.29519142665046,-11.523210600500093L41.10460548801136,-7.368610677360116L40.537254967043445,-3.5168363768152076zM-24.01545126709424,-9.249460823175648L-20.161902360168405,-8.580334483394392L-20.15177084411544,-9.099188678224442z" style="fill:rgb(83,212,212)"/><path d="M58.218563848351096,-8.037931615037161L58.94749114988038,-7.888899597298205L57.29519142665046,-11.523210600500093zM58.218563848351096,-8.037931615037161L59.873827161104195,-4.402150122091365L58.94749114988038,-7.888899597298205z" style="fill:rgb(246,170,145)"/><path d="M-21.979910017745603,-9.03464498919084L-25.936619905229776,-6.313661319678898L-15.447636696343762,13.243246500270105z" style="fill:rgb(187,64,221)"/><path d="M40.537254967043445,-3.5168363768152076L44.46736348221478,2.954050775886764L42.75946640274445,-0.6542145076768944z" style="fill:rgb(18,62,136)"/><path d="M57.29519142665046,-11.523210600500093L40.537254967043445,-3.5168363768152076L42.75946640274445,-0.6542145076768944z" style="fill:rgb(83,212,212)"/><path d="M-20.217807891766512,-5.717283529405096L-20.15177084411544,-9.099188678224442L-20.161902360168405,-8.580334483394392z" style="fill:rgb(255,127,127)"/><path d="M-21.918939995073853,-11.897538012833833L-25.78005636232273,-12.560137975010663L-29.718039982800352,-9.856126205945124z" style="fill:rgb(83,212,212)"/><path d="M42.75946640274445,-0.6542145076768944L44.46736348221478,2.954050775886764L48.78725814430871,3.9098511221327117z" style="fill:rgb(62,34,186)"/><path d="M-21.918939995073853,-11.897538012833833L-29.718039982800352,-9.856126205945124L-29.800543586489,-6.993129743756977z" style="fill:rgb(83,212,212)"/><path d="M-21.979910017745603,-9.03464498919084L-20.217807891766512,-5.717283529405096L-20.161902360168405,-8.580334483394392z" style="fill:rgb(247,158,158)"/><path d="M57.29519142665046,-11.523210600500093L42.75946640274445,-0.6542145076768944L47.08930757902797,0.29412754886413134z" style="fill:rgb(83,212,212)"/><path d="M-21.979910017745603,-9.03464498919084L-20.161902360168405,-8.580334483394392L-21.918939995073853,-11.897538012833833z" style="fill:rgb(247,158,158)"/><path d="M56.30430094530783,-4.106251941906727L57.970780956491254,-0.47408554938363845L59.873827161104195,-4.402150122091365z" style="fill:rgb(236,118,193)"/><path d="M57.29519142665046,-11.523210600500093L56.30430094530783,-4.106251941906727L58.218563848351096,-8.037931615037161z" style="fill:rgb(83,212,212)"/><path d="M56.30430094530783,-4.106251941906727L59.873827161104195,-4.402150122091365L58.218563848351096,-8.037931615037161z" style="fill:rgb(236,118,193)"/><path d="M-25.936619905229776,-6.313661319678898L-29.800543586489,-6.993129743756977L-28.01720761683151,-3.688628394774068z" style="fill:rgb(67,34,190)"/><path d="M42.75946640274445,-0.6542145076768944L48.78725814430871,3.9098511221327117L47.08930757902797,0.29412754886413134z" style="fill:rgb(62,34,186)"/><path d="M47.08930757902797,0.29412754886413134L48.78725814430871,3.9098511221327117L53.83104549044942,2.6319040583385456z" style="fill:rgb(127,37,217)"/><path d="M57.29519142665046,-11.523210600500093L47.08930757902797,0.29412754886413134L52.148598564744006,-0.9927468370942074zM57.29519142665046,-11.523210600500093L52.148598564744006,-0.9927468370942074L56.30430094530783,-4.106251941906727zM-21.918939995073853,-11.897538012833833L-29.800543586489,-6.993129743756977L-25.936619905229776,-6.313661319678898z" style="fill:rgb(83,212,212)"/><path d="M52.148598564744006,-0.9927468370942074L53.83104549044942,2.6319040583385456L57.970780956491254,-0.47408554938363845z" style="fill:rgb(192,68,220)"/><path d="M-21.918939995073853,-11.897538012833833L-25.936619905229776,-6.313661319678898L-21.979910017745603,-9.03464498919084z" style="fill:rgb(83,212,212)"/><path d="M52.148598564744006,-0.9927468370942074L57.970780956491254,-0.47408554938363845L56.30430094530783,-4.106251941906727z" style="fill:rgb(192,68,220)"/><path d="M47.08930757902797,0.29412754886413134L53.83104549044942,2.6319040583385456L52.148598564744006,-0.9927468370942074z" style="fill:rgb(127,37,217)"/><path d="M45.62537091975803,-22.84336159673558L53.37084343239019,-6.0334622667134985L53.196466786025866,-9.415351497372493z" style="fill:rgb(247,158,158)"/><path d="M40.06969153756015,-23.516379643994185L45.426500068474546,-4.00358286401833L49.475833527418686,-3.318250009573324z" style="fill:rgb(67,34,190)"/><path d="M44.04635197142638,-26.27028538295567L49.475833527418686,-3.318250009573324L53.37084343239019,-6.0334622667134985z" style="fill:rgb(187,64,221)"/><path d="M45.62537091975803,-22.84336159673558L53.196466786025866,-9.415351497372493L45.47391664794507,-26.223536586175065z" style="fill:rgb(247,158,158)"/><path d="M37.463678606953145,-23.609748908381892L41.40777524036504,-26.3398202602094L41.38668409699368,-26.85669675948962zM37.463678606953145,-23.609748908381892L41.38668409699368,-26.85669675948962L37.44458368169192,-24.128363734127763z" style="fill:rgb(83,212,212)"/><path d="M40.06969153756015,-23.516379643994185L37.56905004930618,-20.747878989182603L45.426500068474546,-4.00358286401833z" style="fill:rgb(67,34,190)"/><path d="M41.40777524036504,-26.3398202602094L45.47391664794507,-26.223536586175065L41.38668409699368,-26.85669675948962zM41.40777524036504,-26.3398202602094L45.497151759959706,-25.704972142315313L45.47391664794507,-26.223536586175065z" style="fill:rgb(83,212,212)"/><path d="M44.04635197142638,-26.27028538295567L40.06969153756015,-23.516379643994185L49.475833527418686,-3.318250009573324z" style="fill:rgb(187,64,221)"/><path d="M45.62537091975803,-22.84336159673558L45.47391664794507,-26.223536586175065L45.497151759959706,-25.704972142315313z" style="fill:rgb(0,127,127)"/><path d="M43.92217295616592,-29.13142434770481L39.82386860446512,-29.759240156917517L35.86606043712466,-27.022739057406287zM43.92217295616592,-29.13142434770481L35.86606043712466,-27.022739057406287L35.9672625224482,-24.161303423147178z" style="fill:rgb(83,212,212)"/><path d="M44.04635197142638,-26.27028538295567L45.62537091975803,-22.84336159673558L45.497151759959706,-25.704972142315313zM44.04635197142638,-26.27028538295567L45.497151759959706,-25.704972142315313L43.92217295616592,-29.13142434770481z" style="fill:rgb(247,158,158)"/><path d="M40.06969153756015,-23.516379643994185L35.9672625224482,-24.161303423147178L37.56905004930618,-20.747878989182603z" style="fill:rgb(67,34,190)"/><path d="M43.92217295616592,-29.13142434770481L35.9672625224482,-24.161303423147178L40.06969153756015,-23.516379643994185zM43.92217295616592,-29.13142434770481L40.06969153756015,-23.516379643994185L44.04635197142638,-26.27028538295567z" style="fill:rgb(83,212,212)"/></svg>
